G04 #@! TF.GenerationSoftware,KiCad,Pcbnew,(5.1.6)-1*
G04 #@! TF.CreationDate,2020-06-13T18:42:55+01:00*
G04 #@! TF.ProjectId,ST4Adapter_v2,53543441-6461-4707-9465-725f76322e6b,rev?*
G04 #@! TF.SameCoordinates,Original*
G04 #@! TF.FileFunction,Copper,L2,Bot*
G04 #@! TF.FilePolarity,Positive*
%FSLAX46Y46*%
G04 Gerber Fmt 4.6, Leading zero omitted, Abs format (unit mm)*
G04 Created by KiCad (PCBNEW (5.1.6)-1) date 2020-06-13 18:42:55*
%MOMM*%
%LPD*%
G01*
G04 APERTURE LIST*
G04 #@! TA.AperFunction,ComponentPad*
%ADD10C,1.400000*%
G04 #@! TD*
G04 #@! TA.AperFunction,ComponentPad*
%ADD11R,1.200000X1.200000*%
G04 #@! TD*
G04 #@! TA.AperFunction,ComponentPad*
%ADD12C,1.200000*%
G04 #@! TD*
G04 #@! TA.AperFunction,ComponentPad*
%ADD13R,1.700000X1.700000*%
G04 #@! TD*
G04 #@! TA.AperFunction,ComponentPad*
%ADD14O,1.700000X1.700000*%
G04 #@! TD*
G04 #@! TA.AperFunction,ComponentPad*
%ADD15O,1.600000X1.600000*%
G04 #@! TD*
G04 #@! TA.AperFunction,ComponentPad*
%ADD16C,1.600000*%
G04 #@! TD*
G04 #@! TA.AperFunction,Conductor*
%ADD17C,0.250000*%
G04 #@! TD*
G04 APERTURE END LIST*
D10*
X167640000Y-98425000D03*
X170180000Y-97155000D03*
X167640000Y-95885000D03*
X170180000Y-94615000D03*
X167640000Y-93345000D03*
X170180000Y-92075000D03*
D11*
X144780000Y-107950000D03*
D12*
X147320000Y-107950000D03*
X149860000Y-107950000D03*
X152400000Y-107950000D03*
X154940000Y-107950000D03*
X157480000Y-107950000D03*
X160020000Y-107950000D03*
X162560000Y-107950000D03*
X162560000Y-100330000D03*
X160020000Y-100330000D03*
X157480000Y-100330000D03*
X154940000Y-100330000D03*
X152400000Y-100330000D03*
X149860000Y-100330000D03*
X147320000Y-100330000D03*
X144780000Y-100330000D03*
D13*
X139700000Y-90170000D03*
D14*
X139700000Y-92710000D03*
X139700000Y-95250000D03*
X139700000Y-97790000D03*
X139700000Y-100330000D03*
D15*
X146050000Y-82550000D03*
D16*
X146050000Y-95250000D03*
X151130000Y-95250000D03*
D15*
X151130000Y-82550000D03*
X156210000Y-82550000D03*
D16*
X156210000Y-95250000D03*
X161290000Y-95250000D03*
D15*
X161290000Y-82550000D03*
D17*
X144780000Y-101699002D02*
X144780000Y-107950000D01*
X146050000Y-100429002D02*
X144780000Y-101699002D01*
X146050000Y-95250000D02*
X146050000Y-100429002D01*
X152400000Y-101699002D02*
X152400000Y-107950000D01*
X151130000Y-100429002D02*
X152400000Y-101699002D01*
X151130000Y-95250000D02*
X151130000Y-100429002D01*
X154940000Y-101699002D02*
X154940000Y-107950000D01*
X156210000Y-100429002D02*
X154940000Y-101699002D01*
X156210000Y-95250000D02*
X156210000Y-100429002D01*
X162560000Y-101699002D02*
X162560000Y-107950000D01*
X161290000Y-100429002D02*
X162560000Y-101699002D01*
X161290000Y-95250000D02*
X161290000Y-100429002D01*
M02*
