G04 #@! TF.GenerationSoftware,KiCad,Pcbnew,(5.1.6)-1*
G04 #@! TF.CreationDate,2020-06-13T18:42:55+01:00*
G04 #@! TF.ProjectId,ST4Adapter_v2,53543441-6461-4707-9465-725f76322e6b,rev?*
G04 #@! TF.SameCoordinates,Original*
G04 #@! TF.FileFunction,Legend,Top*
G04 #@! TF.FilePolarity,Positive*
%FSLAX46Y46*%
G04 Gerber Fmt 4.6, Leading zero omitted, Abs format (unit mm)*
G04 Created by KiCad (PCBNEW (5.1.6)-1) date 2020-06-13 18:42:55*
%MOMM*%
%LPD*%
G01*
G04 APERTURE LIST*
%ADD10C,0.150000*%
%ADD11C,0.254000*%
%ADD12C,0.010000*%
%ADD13C,0.200000*%
%ADD14C,0.120000*%
G04 APERTURE END LIST*
D10*
X134776785Y-99830000D02*
X134681547Y-99782380D01*
X134538690Y-99782380D01*
X134395833Y-99830000D01*
X134300595Y-99925238D01*
X134252976Y-100020476D01*
X134205357Y-100210952D01*
X134205357Y-100353809D01*
X134252976Y-100544285D01*
X134300595Y-100639523D01*
X134395833Y-100734761D01*
X134538690Y-100782380D01*
X134633928Y-100782380D01*
X134776785Y-100734761D01*
X134824404Y-100687142D01*
X134824404Y-100353809D01*
X134633928Y-100353809D01*
X135252976Y-100782380D02*
X135252976Y-99782380D01*
X135824404Y-100782380D01*
X135824404Y-99782380D01*
X136300595Y-100782380D02*
X136300595Y-99782380D01*
X136538690Y-99782380D01*
X136681547Y-99830000D01*
X136776785Y-99925238D01*
X136824404Y-100020476D01*
X136872023Y-100210952D01*
X136872023Y-100353809D01*
X136824404Y-100544285D01*
X136776785Y-100639523D01*
X136681547Y-100734761D01*
X136538690Y-100782380D01*
X136300595Y-100782380D01*
X134776785Y-90622380D02*
X134443452Y-90146190D01*
X134205357Y-90622380D02*
X134205357Y-89622380D01*
X134586309Y-89622380D01*
X134681547Y-89670000D01*
X134729166Y-89717619D01*
X134776785Y-89812857D01*
X134776785Y-89955714D01*
X134729166Y-90050952D01*
X134681547Y-90098571D01*
X134586309Y-90146190D01*
X134205357Y-90146190D01*
X135157738Y-90336666D02*
X135633928Y-90336666D01*
X135062500Y-90622380D02*
X135395833Y-89622380D01*
X135729166Y-90622380D01*
X136062500Y-90241428D02*
X136824404Y-90241428D01*
X133157738Y-93162380D02*
X133157738Y-92162380D01*
X133395833Y-92162380D01*
X133538690Y-92210000D01*
X133633928Y-92305238D01*
X133681547Y-92400476D01*
X133729166Y-92590952D01*
X133729166Y-92733809D01*
X133681547Y-92924285D01*
X133633928Y-93019523D01*
X133538690Y-93114761D01*
X133395833Y-93162380D01*
X133157738Y-93162380D01*
X134157738Y-92638571D02*
X134491071Y-92638571D01*
X134633928Y-93162380D02*
X134157738Y-93162380D01*
X134157738Y-92162380D01*
X134633928Y-92162380D01*
X135633928Y-93067142D02*
X135586309Y-93114761D01*
X135443452Y-93162380D01*
X135348214Y-93162380D01*
X135205357Y-93114761D01*
X135110119Y-93019523D01*
X135062500Y-92924285D01*
X135014880Y-92733809D01*
X135014880Y-92590952D01*
X135062500Y-92400476D01*
X135110119Y-92305238D01*
X135205357Y-92210000D01*
X135348214Y-92162380D01*
X135443452Y-92162380D01*
X135586309Y-92210000D01*
X135633928Y-92257619D01*
X136062500Y-92781428D02*
X136824404Y-92781428D01*
X133157738Y-95702380D02*
X133157738Y-94702380D01*
X133395833Y-94702380D01*
X133538690Y-94750000D01*
X133633928Y-94845238D01*
X133681547Y-94940476D01*
X133729166Y-95130952D01*
X133729166Y-95273809D01*
X133681547Y-95464285D01*
X133633928Y-95559523D01*
X133538690Y-95654761D01*
X133395833Y-95702380D01*
X133157738Y-95702380D01*
X134157738Y-95178571D02*
X134491071Y-95178571D01*
X134633928Y-95702380D02*
X134157738Y-95702380D01*
X134157738Y-94702380D01*
X134633928Y-94702380D01*
X135633928Y-95607142D02*
X135586309Y-95654761D01*
X135443452Y-95702380D01*
X135348214Y-95702380D01*
X135205357Y-95654761D01*
X135110119Y-95559523D01*
X135062500Y-95464285D01*
X135014880Y-95273809D01*
X135014880Y-95130952D01*
X135062500Y-94940476D01*
X135110119Y-94845238D01*
X135205357Y-94750000D01*
X135348214Y-94702380D01*
X135443452Y-94702380D01*
X135586309Y-94750000D01*
X135633928Y-94797619D01*
X136062500Y-95321428D02*
X136824404Y-95321428D01*
X136443452Y-95702380D02*
X136443452Y-94940476D01*
X134776785Y-98242380D02*
X134443452Y-97766190D01*
X134205357Y-98242380D02*
X134205357Y-97242380D01*
X134586309Y-97242380D01*
X134681547Y-97290000D01*
X134729166Y-97337619D01*
X134776785Y-97432857D01*
X134776785Y-97575714D01*
X134729166Y-97670952D01*
X134681547Y-97718571D01*
X134586309Y-97766190D01*
X134205357Y-97766190D01*
X135157738Y-97956666D02*
X135633928Y-97956666D01*
X135062500Y-98242380D02*
X135395833Y-97242380D01*
X135729166Y-98242380D01*
X136062500Y-97861428D02*
X136824404Y-97861428D01*
X136443452Y-98242380D02*
X136443452Y-97480476D01*
D11*
X166310000Y-101855000D02*
X166310000Y-88645000D01*
X166310000Y-101855000D02*
X175360000Y-101855000D01*
X166310000Y-88645000D02*
X175360000Y-88645000D01*
X167731920Y-100330000D02*
G75*
G03*
X167731920Y-100330000I-91920J0D01*
G01*
D12*
G36*
X176942660Y-81913657D02*
G01*
X176965009Y-82028658D01*
X176983867Y-82119473D01*
X176999459Y-82187044D01*
X177012009Y-82232313D01*
X177021741Y-82256220D01*
X177025300Y-82260283D01*
X177042786Y-82268555D01*
X177079705Y-82284547D01*
X177131920Y-82306516D01*
X177195292Y-82332721D01*
X177259803Y-82359037D01*
X177341427Y-82391559D01*
X177402786Y-82414561D01*
X177446774Y-82428949D01*
X177476288Y-82435632D01*
X177494221Y-82435516D01*
X177498577Y-82433892D01*
X177515243Y-82423446D01*
X177549668Y-82400734D01*
X177598682Y-82367885D01*
X177659120Y-82327031D01*
X177727812Y-82280301D01*
X177780324Y-82244405D01*
X177852441Y-82195472D01*
X177918210Y-82151726D01*
X177974570Y-82115130D01*
X178018463Y-82087650D01*
X178046828Y-82071248D01*
X178056029Y-82067400D01*
X178069660Y-82076101D01*
X178097881Y-82100247D01*
X178137754Y-82136906D01*
X178186341Y-82183141D01*
X178240702Y-82236018D01*
X178297901Y-82292604D01*
X178354998Y-82349964D01*
X178409056Y-82405162D01*
X178457135Y-82455265D01*
X178496298Y-82497339D01*
X178523607Y-82528448D01*
X178536122Y-82545659D01*
X178536600Y-82547339D01*
X178529649Y-82561809D01*
X178510089Y-82594124D01*
X178479854Y-82641308D01*
X178440878Y-82700383D01*
X178395097Y-82768372D01*
X178352450Y-82830697D01*
X178302422Y-82903841D01*
X178257540Y-82970517D01*
X178219740Y-83027761D01*
X178190957Y-83072612D01*
X178173127Y-83102106D01*
X178168031Y-83112883D01*
X178172894Y-83133617D01*
X178186571Y-83171904D01*
X178207130Y-83223445D01*
X178232641Y-83283936D01*
X178261172Y-83349076D01*
X178290790Y-83414563D01*
X178319565Y-83476096D01*
X178345564Y-83529374D01*
X178366857Y-83570094D01*
X178381512Y-83593955D01*
X178386015Y-83598326D01*
X178404200Y-83602508D01*
X178443612Y-83610557D01*
X178500498Y-83621738D01*
X178571103Y-83635321D01*
X178651676Y-83650574D01*
X178706809Y-83660886D01*
X178791196Y-83676823D01*
X178867449Y-83691651D01*
X178931950Y-83704634D01*
X178981080Y-83715033D01*
X179011222Y-83722108D01*
X179018948Y-83724594D01*
X179023408Y-83739638D01*
X179026983Y-83775973D01*
X179029690Y-83829507D01*
X179031545Y-83896148D01*
X179032567Y-83971802D01*
X179032772Y-84052378D01*
X179032178Y-84133782D01*
X179030803Y-84211922D01*
X179028664Y-84282705D01*
X179025778Y-84342040D01*
X179022162Y-84385833D01*
X179017835Y-84409992D01*
X179016025Y-84413160D01*
X178999484Y-84418750D01*
X178961601Y-84427944D01*
X178906050Y-84439964D01*
X178836509Y-84454034D01*
X178756654Y-84469379D01*
X178701700Y-84479534D01*
X178617217Y-84495384D01*
X178540758Y-84510641D01*
X178475984Y-84524499D01*
X178426558Y-84536154D01*
X178396144Y-84544800D01*
X178388336Y-84548393D01*
X178379300Y-84564172D01*
X178362660Y-84599846D01*
X178340048Y-84651651D01*
X178313098Y-84715823D01*
X178283446Y-84788595D01*
X178275848Y-84807574D01*
X178243256Y-84889601D01*
X178219233Y-84951461D01*
X178202836Y-84996542D01*
X178193122Y-85028227D01*
X178189150Y-85049904D01*
X178189976Y-85064958D01*
X178194658Y-85076774D01*
X178198962Y-85083772D01*
X178212114Y-85103341D01*
X178237239Y-85140280D01*
X178271910Y-85191035D01*
X178313698Y-85252054D01*
X178360175Y-85319784D01*
X178378125Y-85345909D01*
X178424335Y-85413753D01*
X178465238Y-85474980D01*
X178498752Y-85526377D01*
X178522798Y-85564734D01*
X178535295Y-85586838D01*
X178536600Y-85590539D01*
X178527830Y-85604190D01*
X178503494Y-85632304D01*
X178466546Y-85671965D01*
X178419943Y-85720257D01*
X178366641Y-85774266D01*
X178309598Y-85831074D01*
X178251768Y-85887767D01*
X178196109Y-85941428D01*
X178145576Y-85989141D01*
X178103126Y-86027991D01*
X178071716Y-86055062D01*
X178054301Y-86067438D01*
X178052608Y-86067900D01*
X178036821Y-86060951D01*
X178003386Y-86041444D01*
X177955465Y-86011390D01*
X177896218Y-85972798D01*
X177828803Y-85927678D01*
X177783043Y-85896450D01*
X177712767Y-85848378D01*
X177649418Y-85805510D01*
X177595992Y-85769836D01*
X177555485Y-85743344D01*
X177530892Y-85728024D01*
X177524842Y-85725000D01*
X177510628Y-85730480D01*
X177478832Y-85745340D01*
X177434390Y-85767211D01*
X177389997Y-85789730D01*
X177338734Y-85814737D01*
X177295688Y-85833256D01*
X177265776Y-85843331D01*
X177254267Y-85843705D01*
X177245960Y-85828250D01*
X177229647Y-85792454D01*
X177206477Y-85739143D01*
X177177597Y-85671141D01*
X177144157Y-85591275D01*
X177107305Y-85502371D01*
X177068190Y-85407254D01*
X177027959Y-85308750D01*
X176987762Y-85209685D01*
X176948747Y-85112885D01*
X176912062Y-85021175D01*
X176878856Y-84937381D01*
X176850278Y-84864329D01*
X176827475Y-84804845D01*
X176811597Y-84761754D01*
X176803791Y-84737882D01*
X176803265Y-84734050D01*
X176816967Y-84721255D01*
X176845976Y-84699045D01*
X176884361Y-84671936D01*
X176889562Y-84668401D01*
X177000779Y-84579754D01*
X177089760Y-84479681D01*
X177156086Y-84368936D01*
X177199336Y-84248273D01*
X177219090Y-84118448D01*
X177220381Y-84074000D01*
X177208314Y-83942810D01*
X177173255Y-83819778D01*
X177116917Y-83707163D01*
X177041015Y-83607227D01*
X176947263Y-83522228D01*
X176837375Y-83454427D01*
X176714150Y-83406400D01*
X176632814Y-83390570D01*
X176539249Y-83384657D01*
X176444609Y-83388660D01*
X176360050Y-83402578D01*
X176345850Y-83406400D01*
X176221651Y-83454912D01*
X176111890Y-83522865D01*
X176018278Y-83607997D01*
X175942532Y-83708048D01*
X175886364Y-83820759D01*
X175851488Y-83943868D01*
X175839618Y-84074000D01*
X175851574Y-84206666D01*
X175887164Y-84330417D01*
X175945968Y-84444498D01*
X176027565Y-84548154D01*
X176131535Y-84640632D01*
X176170437Y-84668401D01*
X176209611Y-84695844D01*
X176240178Y-84718999D01*
X176256193Y-84733333D01*
X176256875Y-84734279D01*
X176253490Y-84747663D01*
X176241459Y-84781656D01*
X176221932Y-84833432D01*
X176196058Y-84900165D01*
X176164985Y-84979029D01*
X176129864Y-85067197D01*
X176091843Y-85161843D01*
X176052071Y-85260142D01*
X176011698Y-85359266D01*
X175971873Y-85456390D01*
X175933744Y-85548688D01*
X175898462Y-85633333D01*
X175867175Y-85707499D01*
X175841032Y-85768360D01*
X175821183Y-85813089D01*
X175808776Y-85838861D01*
X175805770Y-85843705D01*
X175791266Y-85842566D01*
X175759352Y-85831280D01*
X175714947Y-85811804D01*
X175670002Y-85789730D01*
X175618733Y-85763749D01*
X175575970Y-85742742D01*
X175546617Y-85729076D01*
X175535843Y-85725000D01*
X175523516Y-85731882D01*
X175493268Y-85751210D01*
X175448085Y-85781001D01*
X175390952Y-85819277D01*
X175324854Y-85864055D01*
X175277418Y-85896450D01*
X175206276Y-85944623D01*
X175141294Y-85987565D01*
X175085631Y-86023272D01*
X175042447Y-86049743D01*
X175014901Y-86064975D01*
X175006913Y-86067900D01*
X174992781Y-86059227D01*
X174963485Y-86034812D01*
X174921634Y-85997057D01*
X174869837Y-85948364D01*
X174810704Y-85891136D01*
X174755046Y-85835999D01*
X174692485Y-85772854D01*
X174636328Y-85715186D01*
X174588964Y-85665528D01*
X174552783Y-85626414D01*
X174530173Y-85600378D01*
X174523400Y-85590285D01*
X174530312Y-85576200D01*
X174549663Y-85544481D01*
X174579373Y-85498336D01*
X174617360Y-85440972D01*
X174661547Y-85375597D01*
X174681874Y-85345909D01*
X174729473Y-85276592D01*
X174773284Y-85212668D01*
X174810879Y-85157690D01*
X174839830Y-85115210D01*
X174857708Y-85088782D01*
X174861037Y-85083772D01*
X174867593Y-85072271D01*
X174870863Y-85059579D01*
X174869904Y-85042311D01*
X174863774Y-85017081D01*
X174851530Y-84980503D01*
X174832229Y-84929191D01*
X174804930Y-84859760D01*
X174784151Y-84807574D01*
X174754081Y-84733256D01*
X174726308Y-84666612D01*
X174702467Y-84611405D01*
X174684189Y-84571397D01*
X174673110Y-84550351D01*
X174671663Y-84548499D01*
X174655320Y-84542137D01*
X174617708Y-84532245D01*
X174562579Y-84519659D01*
X174493687Y-84505214D01*
X174414784Y-84489745D01*
X174371000Y-84481567D01*
X174287417Y-84466169D01*
X174210937Y-84451993D01*
X174145538Y-84439782D01*
X174095198Y-84430281D01*
X174063897Y-84424235D01*
X174056674Y-84422750D01*
X174028100Y-84416416D01*
X174028100Y-84074507D01*
X174028522Y-83978947D01*
X174029723Y-83894378D01*
X174031602Y-83823765D01*
X174034060Y-83770071D01*
X174036998Y-83736261D01*
X174039834Y-83725346D01*
X174055138Y-83721059D01*
X174091833Y-83712904D01*
X174146329Y-83701615D01*
X174215036Y-83687923D01*
X174294364Y-83672561D01*
X174351946Y-83661647D01*
X174437091Y-83645534D01*
X174514680Y-83630636D01*
X174580970Y-83617691D01*
X174632219Y-83607433D01*
X174664683Y-83600598D01*
X174673957Y-83598334D01*
X174684185Y-83585477D01*
X174702104Y-83553415D01*
X174725783Y-83506449D01*
X174753289Y-83448883D01*
X174782692Y-83385016D01*
X174812058Y-83319152D01*
X174839457Y-83255591D01*
X174862956Y-83198636D01*
X174880624Y-83152588D01*
X174890528Y-83121748D01*
X174891968Y-83112883D01*
X174884949Y-83098738D01*
X174865333Y-83066723D01*
X174835058Y-83019802D01*
X174796059Y-82960936D01*
X174750272Y-82893089D01*
X174707550Y-82830697D01*
X174657515Y-82757474D01*
X174612649Y-82690627D01*
X174574887Y-82633138D01*
X174546163Y-82587987D01*
X174528413Y-82558155D01*
X174523400Y-82547085D01*
X174532121Y-82533438D01*
X174556324Y-82505238D01*
X174593067Y-82465416D01*
X174639411Y-82416905D01*
X174692413Y-82362637D01*
X174749133Y-82305544D01*
X174806630Y-82248558D01*
X174861963Y-82194612D01*
X174912191Y-82146638D01*
X174954373Y-82107568D01*
X174985568Y-82080334D01*
X175002834Y-82067869D01*
X175004513Y-82067400D01*
X175019401Y-82074325D01*
X175052083Y-82093791D01*
X175099504Y-82123836D01*
X175158606Y-82162496D01*
X175226335Y-82207807D01*
X175280684Y-82244791D01*
X175353333Y-82294444D01*
X175419938Y-82339715D01*
X175477347Y-82378484D01*
X175522413Y-82408629D01*
X175551984Y-82428029D01*
X175561937Y-82434167D01*
X175576774Y-82436022D01*
X175603932Y-82430863D01*
X175645933Y-82417884D01*
X175705295Y-82396281D01*
X175784539Y-82365246D01*
X175811913Y-82354240D01*
X175883239Y-82324744D01*
X175946521Y-82297266D01*
X175997921Y-82273579D01*
X176033601Y-82255457D01*
X176049723Y-82244671D01*
X176050019Y-82244239D01*
X176055109Y-82227252D01*
X176063983Y-82188806D01*
X176075910Y-82132437D01*
X176090161Y-82061681D01*
X176106005Y-81980075D01*
X176120647Y-81902300D01*
X176180750Y-81578450D01*
X176879070Y-81578450D01*
X176942660Y-81913657D01*
G37*
X176942660Y-81913657D02*
X176965009Y-82028658D01*
X176983867Y-82119473D01*
X176999459Y-82187044D01*
X177012009Y-82232313D01*
X177021741Y-82256220D01*
X177025300Y-82260283D01*
X177042786Y-82268555D01*
X177079705Y-82284547D01*
X177131920Y-82306516D01*
X177195292Y-82332721D01*
X177259803Y-82359037D01*
X177341427Y-82391559D01*
X177402786Y-82414561D01*
X177446774Y-82428949D01*
X177476288Y-82435632D01*
X177494221Y-82435516D01*
X177498577Y-82433892D01*
X177515243Y-82423446D01*
X177549668Y-82400734D01*
X177598682Y-82367885D01*
X177659120Y-82327031D01*
X177727812Y-82280301D01*
X177780324Y-82244405D01*
X177852441Y-82195472D01*
X177918210Y-82151726D01*
X177974570Y-82115130D01*
X178018463Y-82087650D01*
X178046828Y-82071248D01*
X178056029Y-82067400D01*
X178069660Y-82076101D01*
X178097881Y-82100247D01*
X178137754Y-82136906D01*
X178186341Y-82183141D01*
X178240702Y-82236018D01*
X178297901Y-82292604D01*
X178354998Y-82349964D01*
X178409056Y-82405162D01*
X178457135Y-82455265D01*
X178496298Y-82497339D01*
X178523607Y-82528448D01*
X178536122Y-82545659D01*
X178536600Y-82547339D01*
X178529649Y-82561809D01*
X178510089Y-82594124D01*
X178479854Y-82641308D01*
X178440878Y-82700383D01*
X178395097Y-82768372D01*
X178352450Y-82830697D01*
X178302422Y-82903841D01*
X178257540Y-82970517D01*
X178219740Y-83027761D01*
X178190957Y-83072612D01*
X178173127Y-83102106D01*
X178168031Y-83112883D01*
X178172894Y-83133617D01*
X178186571Y-83171904D01*
X178207130Y-83223445D01*
X178232641Y-83283936D01*
X178261172Y-83349076D01*
X178290790Y-83414563D01*
X178319565Y-83476096D01*
X178345564Y-83529374D01*
X178366857Y-83570094D01*
X178381512Y-83593955D01*
X178386015Y-83598326D01*
X178404200Y-83602508D01*
X178443612Y-83610557D01*
X178500498Y-83621738D01*
X178571103Y-83635321D01*
X178651676Y-83650574D01*
X178706809Y-83660886D01*
X178791196Y-83676823D01*
X178867449Y-83691651D01*
X178931950Y-83704634D01*
X178981080Y-83715033D01*
X179011222Y-83722108D01*
X179018948Y-83724594D01*
X179023408Y-83739638D01*
X179026983Y-83775973D01*
X179029690Y-83829507D01*
X179031545Y-83896148D01*
X179032567Y-83971802D01*
X179032772Y-84052378D01*
X179032178Y-84133782D01*
X179030803Y-84211922D01*
X179028664Y-84282705D01*
X179025778Y-84342040D01*
X179022162Y-84385833D01*
X179017835Y-84409992D01*
X179016025Y-84413160D01*
X178999484Y-84418750D01*
X178961601Y-84427944D01*
X178906050Y-84439964D01*
X178836509Y-84454034D01*
X178756654Y-84469379D01*
X178701700Y-84479534D01*
X178617217Y-84495384D01*
X178540758Y-84510641D01*
X178475984Y-84524499D01*
X178426558Y-84536154D01*
X178396144Y-84544800D01*
X178388336Y-84548393D01*
X178379300Y-84564172D01*
X178362660Y-84599846D01*
X178340048Y-84651651D01*
X178313098Y-84715823D01*
X178283446Y-84788595D01*
X178275848Y-84807574D01*
X178243256Y-84889601D01*
X178219233Y-84951461D01*
X178202836Y-84996542D01*
X178193122Y-85028227D01*
X178189150Y-85049904D01*
X178189976Y-85064958D01*
X178194658Y-85076774D01*
X178198962Y-85083772D01*
X178212114Y-85103341D01*
X178237239Y-85140280D01*
X178271910Y-85191035D01*
X178313698Y-85252054D01*
X178360175Y-85319784D01*
X178378125Y-85345909D01*
X178424335Y-85413753D01*
X178465238Y-85474980D01*
X178498752Y-85526377D01*
X178522798Y-85564734D01*
X178535295Y-85586838D01*
X178536600Y-85590539D01*
X178527830Y-85604190D01*
X178503494Y-85632304D01*
X178466546Y-85671965D01*
X178419943Y-85720257D01*
X178366641Y-85774266D01*
X178309598Y-85831074D01*
X178251768Y-85887767D01*
X178196109Y-85941428D01*
X178145576Y-85989141D01*
X178103126Y-86027991D01*
X178071716Y-86055062D01*
X178054301Y-86067438D01*
X178052608Y-86067900D01*
X178036821Y-86060951D01*
X178003386Y-86041444D01*
X177955465Y-86011390D01*
X177896218Y-85972798D01*
X177828803Y-85927678D01*
X177783043Y-85896450D01*
X177712767Y-85848378D01*
X177649418Y-85805510D01*
X177595992Y-85769836D01*
X177555485Y-85743344D01*
X177530892Y-85728024D01*
X177524842Y-85725000D01*
X177510628Y-85730480D01*
X177478832Y-85745340D01*
X177434390Y-85767211D01*
X177389997Y-85789730D01*
X177338734Y-85814737D01*
X177295688Y-85833256D01*
X177265776Y-85843331D01*
X177254267Y-85843705D01*
X177245960Y-85828250D01*
X177229647Y-85792454D01*
X177206477Y-85739143D01*
X177177597Y-85671141D01*
X177144157Y-85591275D01*
X177107305Y-85502371D01*
X177068190Y-85407254D01*
X177027959Y-85308750D01*
X176987762Y-85209685D01*
X176948747Y-85112885D01*
X176912062Y-85021175D01*
X176878856Y-84937381D01*
X176850278Y-84864329D01*
X176827475Y-84804845D01*
X176811597Y-84761754D01*
X176803791Y-84737882D01*
X176803265Y-84734050D01*
X176816967Y-84721255D01*
X176845976Y-84699045D01*
X176884361Y-84671936D01*
X176889562Y-84668401D01*
X177000779Y-84579754D01*
X177089760Y-84479681D01*
X177156086Y-84368936D01*
X177199336Y-84248273D01*
X177219090Y-84118448D01*
X177220381Y-84074000D01*
X177208314Y-83942810D01*
X177173255Y-83819778D01*
X177116917Y-83707163D01*
X177041015Y-83607227D01*
X176947263Y-83522228D01*
X176837375Y-83454427D01*
X176714150Y-83406400D01*
X176632814Y-83390570D01*
X176539249Y-83384657D01*
X176444609Y-83388660D01*
X176360050Y-83402578D01*
X176345850Y-83406400D01*
X176221651Y-83454912D01*
X176111890Y-83522865D01*
X176018278Y-83607997D01*
X175942532Y-83708048D01*
X175886364Y-83820759D01*
X175851488Y-83943868D01*
X175839618Y-84074000D01*
X175851574Y-84206666D01*
X175887164Y-84330417D01*
X175945968Y-84444498D01*
X176027565Y-84548154D01*
X176131535Y-84640632D01*
X176170437Y-84668401D01*
X176209611Y-84695844D01*
X176240178Y-84718999D01*
X176256193Y-84733333D01*
X176256875Y-84734279D01*
X176253490Y-84747663D01*
X176241459Y-84781656D01*
X176221932Y-84833432D01*
X176196058Y-84900165D01*
X176164985Y-84979029D01*
X176129864Y-85067197D01*
X176091843Y-85161843D01*
X176052071Y-85260142D01*
X176011698Y-85359266D01*
X175971873Y-85456390D01*
X175933744Y-85548688D01*
X175898462Y-85633333D01*
X175867175Y-85707499D01*
X175841032Y-85768360D01*
X175821183Y-85813089D01*
X175808776Y-85838861D01*
X175805770Y-85843705D01*
X175791266Y-85842566D01*
X175759352Y-85831280D01*
X175714947Y-85811804D01*
X175670002Y-85789730D01*
X175618733Y-85763749D01*
X175575970Y-85742742D01*
X175546617Y-85729076D01*
X175535843Y-85725000D01*
X175523516Y-85731882D01*
X175493268Y-85751210D01*
X175448085Y-85781001D01*
X175390952Y-85819277D01*
X175324854Y-85864055D01*
X175277418Y-85896450D01*
X175206276Y-85944623D01*
X175141294Y-85987565D01*
X175085631Y-86023272D01*
X175042447Y-86049743D01*
X175014901Y-86064975D01*
X175006913Y-86067900D01*
X174992781Y-86059227D01*
X174963485Y-86034812D01*
X174921634Y-85997057D01*
X174869837Y-85948364D01*
X174810704Y-85891136D01*
X174755046Y-85835999D01*
X174692485Y-85772854D01*
X174636328Y-85715186D01*
X174588964Y-85665528D01*
X174552783Y-85626414D01*
X174530173Y-85600378D01*
X174523400Y-85590285D01*
X174530312Y-85576200D01*
X174549663Y-85544481D01*
X174579373Y-85498336D01*
X174617360Y-85440972D01*
X174661547Y-85375597D01*
X174681874Y-85345909D01*
X174729473Y-85276592D01*
X174773284Y-85212668D01*
X174810879Y-85157690D01*
X174839830Y-85115210D01*
X174857708Y-85088782D01*
X174861037Y-85083772D01*
X174867593Y-85072271D01*
X174870863Y-85059579D01*
X174869904Y-85042311D01*
X174863774Y-85017081D01*
X174851530Y-84980503D01*
X174832229Y-84929191D01*
X174804930Y-84859760D01*
X174784151Y-84807574D01*
X174754081Y-84733256D01*
X174726308Y-84666612D01*
X174702467Y-84611405D01*
X174684189Y-84571397D01*
X174673110Y-84550351D01*
X174671663Y-84548499D01*
X174655320Y-84542137D01*
X174617708Y-84532245D01*
X174562579Y-84519659D01*
X174493687Y-84505214D01*
X174414784Y-84489745D01*
X174371000Y-84481567D01*
X174287417Y-84466169D01*
X174210937Y-84451993D01*
X174145538Y-84439782D01*
X174095198Y-84430281D01*
X174063897Y-84424235D01*
X174056674Y-84422750D01*
X174028100Y-84416416D01*
X174028100Y-84074507D01*
X174028522Y-83978947D01*
X174029723Y-83894378D01*
X174031602Y-83823765D01*
X174034060Y-83770071D01*
X174036998Y-83736261D01*
X174039834Y-83725346D01*
X174055138Y-83721059D01*
X174091833Y-83712904D01*
X174146329Y-83701615D01*
X174215036Y-83687923D01*
X174294364Y-83672561D01*
X174351946Y-83661647D01*
X174437091Y-83645534D01*
X174514680Y-83630636D01*
X174580970Y-83617691D01*
X174632219Y-83607433D01*
X174664683Y-83600598D01*
X174673957Y-83598334D01*
X174684185Y-83585477D01*
X174702104Y-83553415D01*
X174725783Y-83506449D01*
X174753289Y-83448883D01*
X174782692Y-83385016D01*
X174812058Y-83319152D01*
X174839457Y-83255591D01*
X174862956Y-83198636D01*
X174880624Y-83152588D01*
X174890528Y-83121748D01*
X174891968Y-83112883D01*
X174884949Y-83098738D01*
X174865333Y-83066723D01*
X174835058Y-83019802D01*
X174796059Y-82960936D01*
X174750272Y-82893089D01*
X174707550Y-82830697D01*
X174657515Y-82757474D01*
X174612649Y-82690627D01*
X174574887Y-82633138D01*
X174546163Y-82587987D01*
X174528413Y-82558155D01*
X174523400Y-82547085D01*
X174532121Y-82533438D01*
X174556324Y-82505238D01*
X174593067Y-82465416D01*
X174639411Y-82416905D01*
X174692413Y-82362637D01*
X174749133Y-82305544D01*
X174806630Y-82248558D01*
X174861963Y-82194612D01*
X174912191Y-82146638D01*
X174954373Y-82107568D01*
X174985568Y-82080334D01*
X175002834Y-82067869D01*
X175004513Y-82067400D01*
X175019401Y-82074325D01*
X175052083Y-82093791D01*
X175099504Y-82123836D01*
X175158606Y-82162496D01*
X175226335Y-82207807D01*
X175280684Y-82244791D01*
X175353333Y-82294444D01*
X175419938Y-82339715D01*
X175477347Y-82378484D01*
X175522413Y-82408629D01*
X175551984Y-82428029D01*
X175561937Y-82434167D01*
X175576774Y-82436022D01*
X175603932Y-82430863D01*
X175645933Y-82417884D01*
X175705295Y-82396281D01*
X175784539Y-82365246D01*
X175811913Y-82354240D01*
X175883239Y-82324744D01*
X175946521Y-82297266D01*
X175997921Y-82273579D01*
X176033601Y-82255457D01*
X176049723Y-82244671D01*
X176050019Y-82244239D01*
X176055109Y-82227252D01*
X176063983Y-82188806D01*
X176075910Y-82132437D01*
X176090161Y-82061681D01*
X176106005Y-81980075D01*
X176120647Y-81902300D01*
X176180750Y-81578450D01*
X176879070Y-81578450D01*
X176942660Y-81913657D01*
D13*
X143635000Y-108550000D02*
X143635000Y-100815000D01*
X163705000Y-107465000D02*
X163705000Y-100815000D01*
D14*
X138370000Y-88840000D02*
X139700000Y-88840000D01*
X138370000Y-90170000D02*
X138370000Y-88840000D01*
X138370000Y-91440000D02*
X141030000Y-91440000D01*
X141030000Y-91440000D02*
X141030000Y-101660000D01*
X138370000Y-91440000D02*
X138370000Y-101660000D01*
X138370000Y-101660000D02*
X141030000Y-101660000D01*
X144330000Y-93520000D02*
X147770000Y-93520000D01*
X147770000Y-93520000D02*
X147770000Y-84280000D01*
X147770000Y-84280000D02*
X144330000Y-84280000D01*
X144330000Y-84280000D02*
X144330000Y-93520000D01*
X146050000Y-94210000D02*
X146050000Y-93520000D01*
X146050000Y-83590000D02*
X146050000Y-84280000D01*
X151130000Y-83590000D02*
X151130000Y-84280000D01*
X151130000Y-94210000D02*
X151130000Y-93520000D01*
X149410000Y-84280000D02*
X149410000Y-93520000D01*
X152850000Y-84280000D02*
X149410000Y-84280000D01*
X152850000Y-93520000D02*
X152850000Y-84280000D01*
X149410000Y-93520000D02*
X152850000Y-93520000D01*
X154490000Y-93520000D02*
X157930000Y-93520000D01*
X157930000Y-93520000D02*
X157930000Y-84280000D01*
X157930000Y-84280000D02*
X154490000Y-84280000D01*
X154490000Y-84280000D02*
X154490000Y-93520000D01*
X156210000Y-94210000D02*
X156210000Y-93520000D01*
X156210000Y-83590000D02*
X156210000Y-84280000D01*
X161290000Y-83590000D02*
X161290000Y-84280000D01*
X161290000Y-94210000D02*
X161290000Y-93520000D01*
X159570000Y-84280000D02*
X159570000Y-93520000D01*
X163010000Y-84280000D02*
X159570000Y-84280000D01*
X163010000Y-93520000D02*
X163010000Y-84280000D01*
X159570000Y-93520000D02*
X163010000Y-93520000D01*
D11*
X147350238Y-104714523D02*
X147350238Y-103444523D01*
X148680714Y-104593571D02*
X148620238Y-104654047D01*
X148438809Y-104714523D01*
X148317857Y-104714523D01*
X148136428Y-104654047D01*
X148015476Y-104533095D01*
X147955000Y-104412142D01*
X147894523Y-104170238D01*
X147894523Y-103988809D01*
X147955000Y-103746904D01*
X148015476Y-103625952D01*
X148136428Y-103505000D01*
X148317857Y-103444523D01*
X148438809Y-103444523D01*
X148620238Y-103505000D01*
X148680714Y-103565476D01*
X149890238Y-104714523D02*
X149164523Y-104714523D01*
X149527380Y-104714523D02*
X149527380Y-103444523D01*
X149406428Y-103625952D01*
X149285476Y-103746904D01*
X149164523Y-103807380D01*
D10*
X146502380Y-89066666D02*
X146026190Y-89400000D01*
X146502380Y-89638095D02*
X145502380Y-89638095D01*
X145502380Y-89257142D01*
X145550000Y-89161904D01*
X145597619Y-89114285D01*
X145692857Y-89066666D01*
X145835714Y-89066666D01*
X145930952Y-89114285D01*
X145978571Y-89161904D01*
X146026190Y-89257142D01*
X146026190Y-89638095D01*
X146502380Y-88114285D02*
X146502380Y-88685714D01*
X146502380Y-88400000D02*
X145502380Y-88400000D01*
X145645238Y-88495238D01*
X145740476Y-88590476D01*
X145788095Y-88685714D01*
X151582380Y-89066666D02*
X151106190Y-89400000D01*
X151582380Y-89638095D02*
X150582380Y-89638095D01*
X150582380Y-89257142D01*
X150630000Y-89161904D01*
X150677619Y-89114285D01*
X150772857Y-89066666D01*
X150915714Y-89066666D01*
X151010952Y-89114285D01*
X151058571Y-89161904D01*
X151106190Y-89257142D01*
X151106190Y-89638095D01*
X150677619Y-88685714D02*
X150630000Y-88638095D01*
X150582380Y-88542857D01*
X150582380Y-88304761D01*
X150630000Y-88209523D01*
X150677619Y-88161904D01*
X150772857Y-88114285D01*
X150868095Y-88114285D01*
X151010952Y-88161904D01*
X151582380Y-88733333D01*
X151582380Y-88114285D01*
X156662380Y-89066666D02*
X156186190Y-89400000D01*
X156662380Y-89638095D02*
X155662380Y-89638095D01*
X155662380Y-89257142D01*
X155710000Y-89161904D01*
X155757619Y-89114285D01*
X155852857Y-89066666D01*
X155995714Y-89066666D01*
X156090952Y-89114285D01*
X156138571Y-89161904D01*
X156186190Y-89257142D01*
X156186190Y-89638095D01*
X155662380Y-88733333D02*
X155662380Y-88114285D01*
X156043333Y-88447619D01*
X156043333Y-88304761D01*
X156090952Y-88209523D01*
X156138571Y-88161904D01*
X156233809Y-88114285D01*
X156471904Y-88114285D01*
X156567142Y-88161904D01*
X156614761Y-88209523D01*
X156662380Y-88304761D01*
X156662380Y-88590476D01*
X156614761Y-88685714D01*
X156567142Y-88733333D01*
X161742380Y-89066666D02*
X161266190Y-89400000D01*
X161742380Y-89638095D02*
X160742380Y-89638095D01*
X160742380Y-89257142D01*
X160790000Y-89161904D01*
X160837619Y-89114285D01*
X160932857Y-89066666D01*
X161075714Y-89066666D01*
X161170952Y-89114285D01*
X161218571Y-89161904D01*
X161266190Y-89257142D01*
X161266190Y-89638095D01*
X161075714Y-88209523D02*
X161742380Y-88209523D01*
X160694761Y-88447619D02*
X161409047Y-88685714D01*
X161409047Y-88066666D01*
M02*
