G04 #@! TF.GenerationSoftware,KiCad,Pcbnew,(5.1.6)-1*
G04 #@! TF.CreationDate,2020-06-13T18:42:55+01:00*
G04 #@! TF.ProjectId,ST4Adapter_v2,53543441-6461-4707-9465-725f76322e6b,rev?*
G04 #@! TF.SameCoordinates,Original*
G04 #@! TF.FileFunction,Legend,Bot*
G04 #@! TF.FilePolarity,Positive*
%FSLAX46Y46*%
G04 Gerber Fmt 4.6, Leading zero omitted, Abs format (unit mm)*
G04 Created by KiCad (PCBNEW (5.1.6)-1) date 2020-06-13 18:42:55*
%MOMM*%
%LPD*%
G01*
G04 APERTURE LIST*
%ADD10C,0.150000*%
%ADD11C,0.010000*%
G04 APERTURE END LIST*
D10*
X154559000Y-92162380D02*
X154559000Y-92400476D01*
X154797095Y-92305238D02*
X154559000Y-92400476D01*
X154320904Y-92305238D01*
X154701857Y-92590952D02*
X154559000Y-92400476D01*
X154416142Y-92590952D01*
X153543000Y-85685380D02*
X153543000Y-85923476D01*
X153781095Y-85828238D02*
X153543000Y-85923476D01*
X153304904Y-85828238D01*
X153685857Y-86113952D02*
X153543000Y-85923476D01*
X153400142Y-86113952D01*
X138430000Y-102576380D02*
X138430000Y-102814476D01*
X138668095Y-102719238D02*
X138430000Y-102814476D01*
X138191904Y-102719238D01*
X138572857Y-103004952D02*
X138430000Y-102814476D01*
X138287142Y-103004952D01*
X143002000Y-93686380D02*
X143002000Y-93924476D01*
X143240095Y-93829238D02*
X143002000Y-93924476D01*
X142763904Y-93829238D01*
X143144857Y-94114952D02*
X143002000Y-93924476D01*
X142859142Y-94114952D01*
X141986000Y-88098380D02*
X141986000Y-88336476D01*
X142224095Y-88241238D02*
X141986000Y-88336476D01*
X141747904Y-88241238D01*
X142128857Y-88526952D02*
X141986000Y-88336476D01*
X141843142Y-88526952D01*
X163068000Y-93178380D02*
X163068000Y-93416476D01*
X163306095Y-93321238D02*
X163068000Y-93416476D01*
X162829904Y-93321238D01*
X163210857Y-93606952D02*
X163068000Y-93416476D01*
X162925142Y-93606952D01*
X139192000Y-108926380D02*
X139192000Y-109164476D01*
X139430095Y-109069238D02*
X139192000Y-109164476D01*
X138953904Y-109069238D01*
X139334857Y-109354952D02*
X139192000Y-109164476D01*
X139049142Y-109354952D01*
X133096000Y-105370380D02*
X133096000Y-105608476D01*
X133334095Y-105513238D02*
X133096000Y-105608476D01*
X132857904Y-105513238D01*
X133238857Y-105798952D02*
X133096000Y-105608476D01*
X132953142Y-105798952D01*
X134366000Y-87844380D02*
X134366000Y-88082476D01*
X134604095Y-87987238D02*
X134366000Y-88082476D01*
X134127904Y-87987238D01*
X134508857Y-88272952D02*
X134366000Y-88082476D01*
X134223142Y-88272952D01*
X137160000Y-88606380D02*
X137160000Y-88844476D01*
X137398095Y-88749238D02*
X137160000Y-88844476D01*
X136921904Y-88749238D01*
X137302857Y-89034952D02*
X137160000Y-88844476D01*
X137017142Y-89034952D01*
X134366000Y-92416380D02*
X134366000Y-92654476D01*
X134604095Y-92559238D02*
X134366000Y-92654476D01*
X134127904Y-92559238D01*
X134508857Y-92844952D02*
X134366000Y-92654476D01*
X134223142Y-92844952D01*
X137922000Y-93432380D02*
X137922000Y-93670476D01*
X138160095Y-93575238D02*
X137922000Y-93670476D01*
X137683904Y-93575238D01*
X138064857Y-93860952D02*
X137922000Y-93670476D01*
X137779142Y-93860952D01*
X136652000Y-96734380D02*
X136652000Y-96972476D01*
X136890095Y-96877238D02*
X136652000Y-96972476D01*
X136413904Y-96877238D01*
X136794857Y-97162952D02*
X136652000Y-96972476D01*
X136509142Y-97162952D01*
X133350000Y-99528380D02*
X133350000Y-99766476D01*
X133588095Y-99671238D02*
X133350000Y-99766476D01*
X133111904Y-99671238D01*
X133492857Y-99956952D02*
X133350000Y-99766476D01*
X133207142Y-99956952D01*
X134874000Y-102322380D02*
X134874000Y-102560476D01*
X135112095Y-102465238D02*
X134874000Y-102560476D01*
X134635904Y-102465238D01*
X135016857Y-102750952D02*
X134874000Y-102560476D01*
X134731142Y-102750952D01*
X143002000Y-97750380D02*
X143002000Y-97988476D01*
X143240095Y-97893238D02*
X143002000Y-97988476D01*
X142763904Y-97893238D01*
X143144857Y-98178952D02*
X143002000Y-97988476D01*
X142859142Y-98178952D01*
X142748000Y-107148380D02*
X142748000Y-107386476D01*
X142986095Y-107291238D02*
X142748000Y-107386476D01*
X142509904Y-107291238D01*
X142890857Y-107576952D02*
X142748000Y-107386476D01*
X142605142Y-107576952D01*
X141224000Y-104862380D02*
X141224000Y-105100476D01*
X141462095Y-105005238D02*
X141224000Y-105100476D01*
X140985904Y-105005238D01*
X141366857Y-105290952D02*
X141224000Y-105100476D01*
X141081142Y-105290952D01*
X172720000Y-94702380D02*
X172720000Y-94940476D01*
X172958095Y-94845238D02*
X172720000Y-94940476D01*
X172481904Y-94845238D01*
X172862857Y-95130952D02*
X172720000Y-94940476D01*
X172577142Y-95130952D01*
X175514000Y-95972380D02*
X175514000Y-96210476D01*
X175752095Y-96115238D02*
X175514000Y-96210476D01*
X175275904Y-96115238D01*
X175656857Y-96400952D02*
X175514000Y-96210476D01*
X175371142Y-96400952D01*
X178308000Y-94194380D02*
X178308000Y-94432476D01*
X178546095Y-94337238D02*
X178308000Y-94432476D01*
X178069904Y-94337238D01*
X178450857Y-94622952D02*
X178308000Y-94432476D01*
X178165142Y-94622952D01*
X179070000Y-107148380D02*
X179070000Y-107386476D01*
X179308095Y-107291238D02*
X179070000Y-107386476D01*
X178831904Y-107291238D01*
X179212857Y-107576952D02*
X179070000Y-107386476D01*
X178927142Y-107576952D01*
X174752000Y-107656380D02*
X174752000Y-107894476D01*
X174990095Y-107799238D02*
X174752000Y-107894476D01*
X174513904Y-107799238D01*
X174894857Y-108084952D02*
X174752000Y-107894476D01*
X174609142Y-108084952D01*
X176022000Y-104354380D02*
X176022000Y-104592476D01*
X176260095Y-104497238D02*
X176022000Y-104592476D01*
X175783904Y-104497238D01*
X176164857Y-104782952D02*
X176022000Y-104592476D01*
X175879142Y-104782952D01*
X177546000Y-103084380D02*
X177546000Y-103322476D01*
X177784095Y-103227238D02*
X177546000Y-103322476D01*
X177307904Y-103227238D01*
X177688857Y-103512952D02*
X177546000Y-103322476D01*
X177403142Y-103512952D01*
X174244000Y-103084380D02*
X174244000Y-103322476D01*
X174482095Y-103227238D02*
X174244000Y-103322476D01*
X174005904Y-103227238D01*
X174386857Y-103512952D02*
X174244000Y-103322476D01*
X174101142Y-103512952D01*
X172212000Y-99020380D02*
X172212000Y-99258476D01*
X172450095Y-99163238D02*
X172212000Y-99258476D01*
X171973904Y-99163238D01*
X172354857Y-99448952D02*
X172212000Y-99258476D01*
X172069142Y-99448952D01*
X168910000Y-101306380D02*
X168910000Y-101544476D01*
X169148095Y-101449238D02*
X168910000Y-101544476D01*
X168671904Y-101449238D01*
X169052857Y-101734952D02*
X168910000Y-101544476D01*
X168767142Y-101734952D01*
X165989000Y-108291380D02*
X165989000Y-108529476D01*
X166227095Y-108434238D02*
X165989000Y-108529476D01*
X165750904Y-108434238D01*
X166131857Y-108719952D02*
X165989000Y-108529476D01*
X165846142Y-108719952D01*
X166878000Y-103846380D02*
X166878000Y-104084476D01*
X167116095Y-103989238D02*
X166878000Y-104084476D01*
X166639904Y-103989238D01*
X167020857Y-104274952D02*
X166878000Y-104084476D01*
X166735142Y-104274952D01*
X164846000Y-100798380D02*
X164846000Y-101036476D01*
X165084095Y-100941238D02*
X164846000Y-101036476D01*
X164607904Y-100941238D01*
X164988857Y-101226952D02*
X164846000Y-101036476D01*
X164703142Y-101226952D01*
X161036000Y-98258380D02*
X161036000Y-98496476D01*
X161274095Y-98401238D02*
X161036000Y-98496476D01*
X160797904Y-98401238D01*
X161178857Y-98686952D02*
X161036000Y-98496476D01*
X160893142Y-98686952D01*
X162306000Y-96988380D02*
X162306000Y-97226476D01*
X162544095Y-97131238D02*
X162306000Y-97226476D01*
X162067904Y-97131238D01*
X162448857Y-97416952D02*
X162306000Y-97226476D01*
X162163142Y-97416952D01*
X164846000Y-87590380D02*
X164846000Y-87828476D01*
X165084095Y-87733238D02*
X164846000Y-87828476D01*
X164607904Y-87733238D01*
X164988857Y-88018952D02*
X164846000Y-87828476D01*
X164703142Y-88018952D01*
X148844000Y-80986380D02*
X148844000Y-81224476D01*
X149082095Y-81129238D02*
X148844000Y-81224476D01*
X148605904Y-81129238D01*
X148986857Y-81414952D02*
X148844000Y-81224476D01*
X148701142Y-81414952D01*
X147574000Y-84542380D02*
X147574000Y-84780476D01*
X147812095Y-84685238D02*
X147574000Y-84780476D01*
X147335904Y-84685238D01*
X147716857Y-84970952D02*
X147574000Y-84780476D01*
X147431142Y-84970952D01*
X143002000Y-82510380D02*
X143002000Y-82748476D01*
X143240095Y-82653238D02*
X143002000Y-82748476D01*
X142763904Y-82653238D01*
X143144857Y-82938952D02*
X143002000Y-82748476D01*
X142859142Y-82938952D01*
X141224000Y-84542380D02*
X141224000Y-84780476D01*
X141462095Y-84685238D02*
X141224000Y-84780476D01*
X140985904Y-84685238D01*
X141366857Y-84970952D02*
X141224000Y-84780476D01*
X141081142Y-84970952D01*
X140462000Y-81240380D02*
X140462000Y-81478476D01*
X140700095Y-81383238D02*
X140462000Y-81478476D01*
X140223904Y-81383238D01*
X140604857Y-81668952D02*
X140462000Y-81478476D01*
X140319142Y-81668952D01*
X133350000Y-83272380D02*
X133350000Y-83510476D01*
X133588095Y-83415238D02*
X133350000Y-83510476D01*
X133111904Y-83415238D01*
X133492857Y-83700952D02*
X133350000Y-83510476D01*
X133207142Y-83700952D01*
X134112000Y-81240380D02*
X134112000Y-81478476D01*
X134350095Y-81383238D02*
X134112000Y-81478476D01*
X133873904Y-81383238D01*
X134254857Y-81668952D02*
X134112000Y-81478476D01*
X133969142Y-81668952D01*
X157734000Y-96988380D02*
X157734000Y-97226476D01*
X157972095Y-97131238D02*
X157734000Y-97226476D01*
X157495904Y-97131238D01*
X157876857Y-97416952D02*
X157734000Y-97226476D01*
X157591142Y-97416952D01*
X153670000Y-96226380D02*
X153670000Y-96464476D01*
X153908095Y-96369238D02*
X153670000Y-96464476D01*
X153431904Y-96369238D01*
X153812857Y-96654952D02*
X153670000Y-96464476D01*
X153527142Y-96654952D01*
X149860000Y-96734380D02*
X149860000Y-96972476D01*
X150098095Y-96877238D02*
X149860000Y-96972476D01*
X149621904Y-96877238D01*
X150002857Y-97162952D02*
X149860000Y-96972476D01*
X149717142Y-97162952D01*
X154178000Y-82256380D02*
X154178000Y-82494476D01*
X154416095Y-82399238D02*
X154178000Y-82494476D01*
X153939904Y-82399238D01*
X154320857Y-82684952D02*
X154178000Y-82494476D01*
X154035142Y-82684952D01*
X158750000Y-82002380D02*
X158750000Y-82240476D01*
X158988095Y-82145238D02*
X158750000Y-82240476D01*
X158511904Y-82145238D01*
X158892857Y-82430952D02*
X158750000Y-82240476D01*
X158607142Y-82430952D01*
X164592000Y-94956380D02*
X164592000Y-95194476D01*
X164830095Y-95099238D02*
X164592000Y-95194476D01*
X164353904Y-95099238D01*
X164734857Y-95384952D02*
X164592000Y-95194476D01*
X164449142Y-95384952D01*
X165100000Y-91400380D02*
X165100000Y-91638476D01*
X165338095Y-91543238D02*
X165100000Y-91638476D01*
X164861904Y-91543238D01*
X165242857Y-91828952D02*
X165100000Y-91638476D01*
X164957142Y-91828952D01*
X173990000Y-92416380D02*
X173990000Y-92654476D01*
X174228095Y-92559238D02*
X173990000Y-92654476D01*
X173751904Y-92559238D01*
X174132857Y-92844952D02*
X173990000Y-92654476D01*
X173847142Y-92844952D01*
X170942000Y-87336380D02*
X170942000Y-87574476D01*
X171180095Y-87479238D02*
X170942000Y-87574476D01*
X170703904Y-87479238D01*
X171084857Y-87764952D02*
X170942000Y-87574476D01*
X170799142Y-87764952D01*
X173482000Y-89114380D02*
X173482000Y-89352476D01*
X173720095Y-89257238D02*
X173482000Y-89352476D01*
X173243904Y-89257238D01*
X173624857Y-89542952D02*
X173482000Y-89352476D01*
X173339142Y-89542952D01*
X168402000Y-89114380D02*
X168402000Y-89352476D01*
X168640095Y-89257238D02*
X168402000Y-89352476D01*
X168163904Y-89257238D01*
X168544857Y-89542952D02*
X168402000Y-89352476D01*
X168259142Y-89542952D01*
X167132000Y-86574380D02*
X167132000Y-86812476D01*
X167370095Y-86717238D02*
X167132000Y-86812476D01*
X166893904Y-86717238D01*
X167274857Y-87002952D02*
X167132000Y-86812476D01*
X166989142Y-87002952D01*
X164592000Y-83780380D02*
X164592000Y-84018476D01*
X164830095Y-83923238D02*
X164592000Y-84018476D01*
X164353904Y-83923238D01*
X164734857Y-84208952D02*
X164592000Y-84018476D01*
X164449142Y-84208952D01*
X165608000Y-81748380D02*
X165608000Y-81986476D01*
X165846095Y-81891238D02*
X165608000Y-81986476D01*
X165369904Y-81891238D01*
X165750857Y-82176952D02*
X165608000Y-81986476D01*
X165465142Y-82176952D01*
X176530000Y-86574380D02*
X176530000Y-86812476D01*
X176768095Y-86717238D02*
X176530000Y-86812476D01*
X176291904Y-86717238D01*
X176672857Y-87002952D02*
X176530000Y-86812476D01*
X176387142Y-87002952D01*
X175768000Y-84288380D02*
X175768000Y-84526476D01*
X176006095Y-84431238D02*
X175768000Y-84526476D01*
X175529904Y-84431238D01*
X175910857Y-84716952D02*
X175768000Y-84526476D01*
X175625142Y-84716952D01*
X177292000Y-82510380D02*
X177292000Y-82748476D01*
X177530095Y-82653238D02*
X177292000Y-82748476D01*
X177053904Y-82653238D01*
X177434857Y-82938952D02*
X177292000Y-82748476D01*
X177149142Y-82938952D01*
X175260000Y-81494380D02*
X175260000Y-81732476D01*
X175498095Y-81637238D02*
X175260000Y-81732476D01*
X175021904Y-81637238D01*
X175402857Y-81922952D02*
X175260000Y-81732476D01*
X175117142Y-81922952D01*
X161122857Y-104862380D02*
X160551428Y-104862380D01*
X160837142Y-105862380D02*
X160837142Y-104862380D01*
X160218095Y-105767142D02*
X160170476Y-105814761D01*
X160218095Y-105862380D01*
X160265714Y-105814761D01*
X160218095Y-105767142D01*
X160218095Y-105862380D01*
X159122857Y-104862380D02*
X158789523Y-105862380D01*
X158456190Y-104862380D01*
X157694285Y-105862380D02*
X157694285Y-105338571D01*
X157741904Y-105243333D01*
X157837142Y-105195714D01*
X158027619Y-105195714D01*
X158122857Y-105243333D01*
X157694285Y-105814761D02*
X157789523Y-105862380D01*
X158027619Y-105862380D01*
X158122857Y-105814761D01*
X158170476Y-105719523D01*
X158170476Y-105624285D01*
X158122857Y-105529047D01*
X158027619Y-105481428D01*
X157789523Y-105481428D01*
X157694285Y-105433809D01*
X157218095Y-105862380D02*
X157218095Y-105195714D01*
X157218095Y-105386190D02*
X157170476Y-105290952D01*
X157122857Y-105243333D01*
X157027619Y-105195714D01*
X156932380Y-105195714D01*
X156599047Y-105195714D02*
X156599047Y-105862380D01*
X156599047Y-105290952D02*
X156551428Y-105243333D01*
X156456190Y-105195714D01*
X156313333Y-105195714D01*
X156218095Y-105243333D01*
X156170476Y-105338571D01*
X156170476Y-105862380D01*
X155694285Y-105862380D02*
X155694285Y-105195714D01*
X155694285Y-104862380D02*
X155741904Y-104910000D01*
X155694285Y-104957619D01*
X155646666Y-104910000D01*
X155694285Y-104862380D01*
X155694285Y-104957619D01*
X155265714Y-105814761D02*
X155170476Y-105862380D01*
X154980000Y-105862380D01*
X154884761Y-105814761D01*
X154837142Y-105719523D01*
X154837142Y-105671904D01*
X154884761Y-105576666D01*
X154980000Y-105529047D01*
X155122857Y-105529047D01*
X155218095Y-105481428D01*
X155265714Y-105386190D01*
X155265714Y-105338571D01*
X155218095Y-105243333D01*
X155122857Y-105195714D01*
X154980000Y-105195714D01*
X154884761Y-105243333D01*
X154408571Y-105862380D02*
X154408571Y-104862380D01*
X153980000Y-105862380D02*
X153980000Y-105338571D01*
X154027619Y-105243333D01*
X154122857Y-105195714D01*
X154265714Y-105195714D01*
X154360952Y-105243333D01*
X154408571Y-105290952D01*
X163431904Y-103274761D02*
X163289047Y-103322380D01*
X163050952Y-103322380D01*
X162955714Y-103274761D01*
X162908095Y-103227142D01*
X162860476Y-103131904D01*
X162860476Y-103036666D01*
X162908095Y-102941428D01*
X162955714Y-102893809D01*
X163050952Y-102846190D01*
X163241428Y-102798571D01*
X163336666Y-102750952D01*
X163384285Y-102703333D01*
X163431904Y-102608095D01*
X163431904Y-102512857D01*
X163384285Y-102417619D01*
X163336666Y-102370000D01*
X163241428Y-102322380D01*
X163003333Y-102322380D01*
X162860476Y-102370000D01*
X162574761Y-102322380D02*
X162003333Y-102322380D01*
X162289047Y-103322380D02*
X162289047Y-102322380D01*
X161670000Y-102941428D02*
X160908095Y-102941428D01*
X160003333Y-102655714D02*
X160003333Y-103322380D01*
X160241428Y-102274761D02*
X160479523Y-102989047D01*
X159860476Y-102989047D01*
X158765238Y-103036666D02*
X158289047Y-103036666D01*
X158860476Y-103322380D02*
X158527142Y-102322380D01*
X158193809Y-103322380D01*
X157431904Y-102655714D02*
X157431904Y-103322380D01*
X157860476Y-102655714D02*
X157860476Y-103179523D01*
X157812857Y-103274761D01*
X157717619Y-103322380D01*
X157574761Y-103322380D01*
X157479523Y-103274761D01*
X157431904Y-103227142D01*
X157098571Y-102655714D02*
X156717619Y-102655714D01*
X156955714Y-102322380D02*
X156955714Y-103179523D01*
X156908095Y-103274761D01*
X156812857Y-103322380D01*
X156717619Y-103322380D01*
X156241428Y-103322380D02*
X156336666Y-103274761D01*
X156384285Y-103227142D01*
X156431904Y-103131904D01*
X156431904Y-102846190D01*
X156384285Y-102750952D01*
X156336666Y-102703333D01*
X156241428Y-102655714D01*
X156098571Y-102655714D01*
X156003333Y-102703333D01*
X155955714Y-102750952D01*
X155908095Y-102846190D01*
X155908095Y-103131904D01*
X155955714Y-103227142D01*
X156003333Y-103274761D01*
X156098571Y-103322380D01*
X156241428Y-103322380D01*
X155050952Y-102655714D02*
X155050952Y-103465238D01*
X155098571Y-103560476D01*
X155146190Y-103608095D01*
X155241428Y-103655714D01*
X155384285Y-103655714D01*
X155479523Y-103608095D01*
X155050952Y-103274761D02*
X155146190Y-103322380D01*
X155336666Y-103322380D01*
X155431904Y-103274761D01*
X155479523Y-103227142D01*
X155527142Y-103131904D01*
X155527142Y-102846190D01*
X155479523Y-102750952D01*
X155431904Y-102703333D01*
X155336666Y-102655714D01*
X155146190Y-102655714D01*
X155050952Y-102703333D01*
X154146190Y-102655714D02*
X154146190Y-103322380D01*
X154574761Y-102655714D02*
X154574761Y-103179523D01*
X154527142Y-103274761D01*
X154431904Y-103322380D01*
X154289047Y-103322380D01*
X154193809Y-103274761D01*
X154146190Y-103227142D01*
X153670000Y-103322380D02*
X153670000Y-102655714D01*
X153670000Y-102322380D02*
X153717619Y-102370000D01*
X153670000Y-102417619D01*
X153622380Y-102370000D01*
X153670000Y-102322380D01*
X153670000Y-102417619D01*
X152765238Y-103322380D02*
X152765238Y-102322380D01*
X152765238Y-103274761D02*
X152860476Y-103322380D01*
X153050952Y-103322380D01*
X153146190Y-103274761D01*
X153193809Y-103227142D01*
X153241428Y-103131904D01*
X153241428Y-102846190D01*
X153193809Y-102750952D01*
X153146190Y-102703333D01*
X153050952Y-102655714D01*
X152860476Y-102655714D01*
X152765238Y-102703333D01*
X151908095Y-103274761D02*
X152003333Y-103322380D01*
X152193809Y-103322380D01*
X152289047Y-103274761D01*
X152336666Y-103179523D01*
X152336666Y-102798571D01*
X152289047Y-102703333D01*
X152193809Y-102655714D01*
X152003333Y-102655714D01*
X151908095Y-102703333D01*
X151860476Y-102798571D01*
X151860476Y-102893809D01*
X152336666Y-102989047D01*
X151431904Y-103322380D02*
X151431904Y-102655714D01*
X151431904Y-102846190D02*
X151384285Y-102750952D01*
X151336666Y-102703333D01*
X151241428Y-102655714D01*
X151146190Y-102655714D01*
X149717619Y-102798571D02*
X149574761Y-102846190D01*
X149527142Y-102893809D01*
X149479523Y-102989047D01*
X149479523Y-103131904D01*
X149527142Y-103227142D01*
X149574761Y-103274761D01*
X149670000Y-103322380D01*
X150050952Y-103322380D01*
X150050952Y-102322380D01*
X149717619Y-102322380D01*
X149622380Y-102370000D01*
X149574761Y-102417619D01*
X149527142Y-102512857D01*
X149527142Y-102608095D01*
X149574761Y-102703333D01*
X149622380Y-102750952D01*
X149717619Y-102798571D01*
X150050952Y-102798571D01*
X149050952Y-103322380D02*
X149050952Y-102655714D01*
X149050952Y-102846190D02*
X149003333Y-102750952D01*
X148955714Y-102703333D01*
X148860476Y-102655714D01*
X148765238Y-102655714D01*
X148050952Y-103274761D02*
X148146190Y-103322380D01*
X148336666Y-103322380D01*
X148431904Y-103274761D01*
X148479523Y-103179523D01*
X148479523Y-102798571D01*
X148431904Y-102703333D01*
X148336666Y-102655714D01*
X148146190Y-102655714D01*
X148050952Y-102703333D01*
X148003333Y-102798571D01*
X148003333Y-102893809D01*
X148479523Y-102989047D01*
X147146190Y-103322380D02*
X147146190Y-102798571D01*
X147193809Y-102703333D01*
X147289047Y-102655714D01*
X147479523Y-102655714D01*
X147574761Y-102703333D01*
X147146190Y-103274761D02*
X147241428Y-103322380D01*
X147479523Y-103322380D01*
X147574761Y-103274761D01*
X147622380Y-103179523D01*
X147622380Y-103084285D01*
X147574761Y-102989047D01*
X147479523Y-102941428D01*
X147241428Y-102941428D01*
X147146190Y-102893809D01*
X146670000Y-103322380D02*
X146670000Y-102322380D01*
X146574761Y-102941428D02*
X146289047Y-103322380D01*
X146289047Y-102655714D02*
X146670000Y-103036666D01*
X145717619Y-103322380D02*
X145812857Y-103274761D01*
X145860476Y-103227142D01*
X145908095Y-103131904D01*
X145908095Y-102846190D01*
X145860476Y-102750952D01*
X145812857Y-102703333D01*
X145717619Y-102655714D01*
X145574761Y-102655714D01*
X145479523Y-102703333D01*
X145431904Y-102750952D01*
X145384285Y-102846190D01*
X145384285Y-103131904D01*
X145431904Y-103227142D01*
X145479523Y-103274761D01*
X145574761Y-103322380D01*
X145717619Y-103322380D01*
X144527142Y-102655714D02*
X144527142Y-103322380D01*
X144955714Y-102655714D02*
X144955714Y-103179523D01*
X144908095Y-103274761D01*
X144812857Y-103322380D01*
X144670000Y-103322380D01*
X144574761Y-103274761D01*
X144527142Y-103227142D01*
X144193809Y-102655714D02*
X143812857Y-102655714D01*
X144050952Y-102322380D02*
X144050952Y-103179523D01*
X144003333Y-103274761D01*
X143908095Y-103322380D01*
X143812857Y-103322380D01*
X150018571Y-105195714D02*
X149780476Y-105862380D01*
X149542380Y-105195714D01*
X148970952Y-104862380D02*
X148875714Y-104862380D01*
X148780476Y-104910000D01*
X148732857Y-104957619D01*
X148685238Y-105052857D01*
X148637619Y-105243333D01*
X148637619Y-105481428D01*
X148685238Y-105671904D01*
X148732857Y-105767142D01*
X148780476Y-105814761D01*
X148875714Y-105862380D01*
X148970952Y-105862380D01*
X149066190Y-105814761D01*
X149113809Y-105767142D01*
X149161428Y-105671904D01*
X149209047Y-105481428D01*
X149209047Y-105243333D01*
X149161428Y-105052857D01*
X149113809Y-104957619D01*
X149066190Y-104910000D01*
X148970952Y-104862380D01*
X148209047Y-105767142D02*
X148161428Y-105814761D01*
X148209047Y-105862380D01*
X148256666Y-105814761D01*
X148209047Y-105767142D01*
X148209047Y-105862380D01*
X147209047Y-105862380D02*
X147780476Y-105862380D01*
X147494761Y-105862380D02*
X147494761Y-104862380D01*
X147590000Y-105005238D01*
X147685238Y-105100476D01*
X147780476Y-105148095D01*
D11*
G36*
X150005149Y-86424651D02*
G01*
X149981547Y-86444624D01*
X149971381Y-86494566D01*
X149968094Y-86537930D01*
X149960502Y-86654839D01*
X149858951Y-86627733D01*
X149763439Y-86616275D01*
X149699006Y-86634499D01*
X149669826Y-86673498D01*
X149680074Y-86724360D01*
X149733926Y-86778178D01*
X149776978Y-86802679D01*
X149883375Y-86853806D01*
X149834750Y-86917093D01*
X149793268Y-86996371D01*
X149792011Y-87066634D01*
X149830836Y-87117225D01*
X149837514Y-87121113D01*
X149874668Y-87133009D01*
X149911274Y-87119138D01*
X149961784Y-87072990D01*
X149974929Y-87059206D01*
X150059824Y-86969190D01*
X150100387Y-87031098D01*
X150163985Y-87102134D01*
X150229448Y-87128072D01*
X150275091Y-87116801D01*
X150312965Y-87070568D01*
X150310880Y-87003432D01*
X150269290Y-86925357D01*
X150266199Y-86921366D01*
X150213469Y-86854331D01*
X150317050Y-86810340D01*
X150384964Y-86775010D01*
X150415280Y-86737575D01*
X150420631Y-86700946D01*
X150403936Y-86641219D01*
X150352480Y-86615548D01*
X150264203Y-86623114D01*
X150239996Y-86629061D01*
X150143422Y-86654839D01*
X150135830Y-86537930D01*
X150128826Y-86466541D01*
X150113574Y-86432354D01*
X150080301Y-86421744D01*
X150051962Y-86421021D01*
X150005149Y-86424651D01*
G37*
X150005149Y-86424651D02*
X149981547Y-86444624D01*
X149971381Y-86494566D01*
X149968094Y-86537930D01*
X149960502Y-86654839D01*
X149858951Y-86627733D01*
X149763439Y-86616275D01*
X149699006Y-86634499D01*
X149669826Y-86673498D01*
X149680074Y-86724360D01*
X149733926Y-86778178D01*
X149776978Y-86802679D01*
X149883375Y-86853806D01*
X149834750Y-86917093D01*
X149793268Y-86996371D01*
X149792011Y-87066634D01*
X149830836Y-87117225D01*
X149837514Y-87121113D01*
X149874668Y-87133009D01*
X149911274Y-87119138D01*
X149961784Y-87072990D01*
X149974929Y-87059206D01*
X150059824Y-86969190D01*
X150100387Y-87031098D01*
X150163985Y-87102134D01*
X150229448Y-87128072D01*
X150275091Y-87116801D01*
X150312965Y-87070568D01*
X150310880Y-87003432D01*
X150269290Y-86925357D01*
X150266199Y-86921366D01*
X150213469Y-86854331D01*
X150317050Y-86810340D01*
X150384964Y-86775010D01*
X150415280Y-86737575D01*
X150420631Y-86700946D01*
X150403936Y-86641219D01*
X150352480Y-86615548D01*
X150264203Y-86623114D01*
X150239996Y-86629061D01*
X150143422Y-86654839D01*
X150135830Y-86537930D01*
X150128826Y-86466541D01*
X150113574Y-86432354D01*
X150080301Y-86421744D01*
X150051962Y-86421021D01*
X150005149Y-86424651D01*
G36*
X146721685Y-86625434D02*
G01*
X146631820Y-86630100D01*
X146564735Y-86640879D01*
X146506403Y-86660227D01*
X146442795Y-86690601D01*
X146428839Y-86697882D01*
X146336393Y-86750745D01*
X146248442Y-86807999D01*
X146204391Y-86840932D01*
X146119782Y-86910524D01*
X145950136Y-86850643D01*
X145790240Y-86803393D01*
X145669585Y-86788399D01*
X145588089Y-86805668D01*
X145545675Y-86855212D01*
X145538949Y-86899374D01*
X145546172Y-86945668D01*
X145572340Y-86995318D01*
X145624199Y-87058057D01*
X145707653Y-87142800D01*
X145876358Y-87307408D01*
X145879275Y-87588839D01*
X145882032Y-87720041D01*
X145888687Y-87814846D01*
X145901615Y-87887685D01*
X145923188Y-87952987D01*
X145948554Y-88010110D01*
X146065275Y-88198943D01*
X146218500Y-88356504D01*
X146401332Y-88477339D01*
X146606874Y-88555997D01*
X146652563Y-88566706D01*
X146796596Y-88588934D01*
X146923805Y-88587473D01*
X147062660Y-88561744D01*
X147077187Y-88558095D01*
X147197347Y-88524230D01*
X147288271Y-88488457D01*
X147370939Y-88440858D01*
X147457408Y-88378346D01*
X147581708Y-88283466D01*
X147736254Y-88335507D01*
X147881452Y-88381049D01*
X147988081Y-88405246D01*
X148063695Y-88408165D01*
X148115850Y-88389869D01*
X148152100Y-88350425D01*
X148158566Y-88339149D01*
X148168521Y-88279806D01*
X148152811Y-88240335D01*
X147979790Y-88240335D01*
X147958036Y-88243616D01*
X147901206Y-88231891D01*
X147827538Y-88209614D01*
X147748561Y-88181494D01*
X147424829Y-88181494D01*
X147348200Y-88236058D01*
X147227548Y-88312936D01*
X147116028Y-88359929D01*
X146995082Y-88382280D01*
X146846154Y-88385229D01*
X146822933Y-88384428D01*
X146688949Y-88375439D01*
X146589976Y-88358707D01*
X146510392Y-88331203D01*
X146484991Y-88318867D01*
X146319964Y-88205894D01*
X146191178Y-88059433D01*
X146102162Y-87884930D01*
X146056449Y-87687833D01*
X146053273Y-87652952D01*
X146046926Y-87533398D01*
X146050859Y-87459169D01*
X146068639Y-87425184D01*
X146103835Y-87426360D01*
X146160016Y-87457618D01*
X146180680Y-87471541D01*
X146334808Y-87572600D01*
X146521826Y-87687409D01*
X146728542Y-87808214D01*
X146941766Y-87927262D01*
X147098455Y-88010958D01*
X147424829Y-88181494D01*
X147748561Y-88181494D01*
X147745474Y-88180395D01*
X147703155Y-88158501D01*
X147691723Y-88136312D01*
X147702318Y-88106207D01*
X147703854Y-88103223D01*
X147728785Y-88057428D01*
X147740299Y-88039048D01*
X147762603Y-88047760D01*
X147808979Y-88080777D01*
X147866651Y-88127361D01*
X147922843Y-88176774D01*
X147964780Y-88218280D01*
X147979790Y-88240335D01*
X148152811Y-88240335D01*
X148139531Y-88206972D01*
X148069555Y-88117300D01*
X147956553Y-88007440D01*
X147956222Y-88007144D01*
X147803327Y-87870270D01*
X147831010Y-87745015D01*
X147838529Y-87657958D01*
X147647404Y-87657958D01*
X147633224Y-87792548D01*
X147626640Y-87820150D01*
X147596266Y-87906365D01*
X147556284Y-87988124D01*
X147514517Y-88052025D01*
X147478791Y-88084670D01*
X147471193Y-88086387D01*
X147438988Y-88075555D01*
X147371947Y-88046208D01*
X147280464Y-88003068D01*
X147193717Y-87960321D01*
X147049392Y-87885101D01*
X146887412Y-87796036D01*
X146717324Y-87698820D01*
X146548673Y-87599150D01*
X146391004Y-87502718D01*
X146253863Y-87415221D01*
X146146796Y-87342352D01*
X146102891Y-87309551D01*
X146105217Y-87282076D01*
X146132164Y-87227763D01*
X146175822Y-87158861D01*
X146228283Y-87087616D01*
X146276499Y-87032183D01*
X146017437Y-87032183D01*
X146012054Y-87055212D01*
X145989455Y-87096484D01*
X145963149Y-87133723D01*
X145948615Y-87145646D01*
X145924973Y-87130866D01*
X145874599Y-87092664D01*
X145826210Y-87053813D01*
X145767805Y-87002359D01*
X145732233Y-86963903D01*
X145726599Y-86949521D01*
X145753561Y-86951182D01*
X145811754Y-86964369D01*
X145884253Y-86984272D01*
X145954133Y-87006081D01*
X146004469Y-87024986D01*
X146017437Y-87032183D01*
X146276499Y-87032183D01*
X146281637Y-87026276D01*
X146293201Y-87014858D01*
X146412490Y-86914887D01*
X146529045Y-86850398D01*
X146658985Y-86815240D01*
X146818431Y-86803265D01*
X146848358Y-86803090D01*
X146973021Y-86805973D01*
X147063706Y-86816068D01*
X147137093Y-86836170D01*
X147193789Y-86860955D01*
X147332999Y-86951226D01*
X147460726Y-87073174D01*
X147559713Y-87209589D01*
X147578117Y-87244286D01*
X147618030Y-87362217D01*
X147641732Y-87507312D01*
X147647404Y-87657958D01*
X147838529Y-87657958D01*
X147844097Y-87593495D01*
X147825072Y-87421056D01*
X147776428Y-87244041D01*
X147741582Y-87158497D01*
X147648706Y-87006625D01*
X147518704Y-86864864D01*
X147365182Y-86746763D01*
X147280036Y-86698936D01*
X147207920Y-86665576D01*
X147145344Y-86643962D01*
X147077728Y-86631580D01*
X146990493Y-86625911D01*
X146869058Y-86624439D01*
X146848358Y-86624425D01*
X146721685Y-86625434D01*
G37*
X146721685Y-86625434D02*
X146631820Y-86630100D01*
X146564735Y-86640879D01*
X146506403Y-86660227D01*
X146442795Y-86690601D01*
X146428839Y-86697882D01*
X146336393Y-86750745D01*
X146248442Y-86807999D01*
X146204391Y-86840932D01*
X146119782Y-86910524D01*
X145950136Y-86850643D01*
X145790240Y-86803393D01*
X145669585Y-86788399D01*
X145588089Y-86805668D01*
X145545675Y-86855212D01*
X145538949Y-86899374D01*
X145546172Y-86945668D01*
X145572340Y-86995318D01*
X145624199Y-87058057D01*
X145707653Y-87142800D01*
X145876358Y-87307408D01*
X145879275Y-87588839D01*
X145882032Y-87720041D01*
X145888687Y-87814846D01*
X145901615Y-87887685D01*
X145923188Y-87952987D01*
X145948554Y-88010110D01*
X146065275Y-88198943D01*
X146218500Y-88356504D01*
X146401332Y-88477339D01*
X146606874Y-88555997D01*
X146652563Y-88566706D01*
X146796596Y-88588934D01*
X146923805Y-88587473D01*
X147062660Y-88561744D01*
X147077187Y-88558095D01*
X147197347Y-88524230D01*
X147288271Y-88488457D01*
X147370939Y-88440858D01*
X147457408Y-88378346D01*
X147581708Y-88283466D01*
X147736254Y-88335507D01*
X147881452Y-88381049D01*
X147988081Y-88405246D01*
X148063695Y-88408165D01*
X148115850Y-88389869D01*
X148152100Y-88350425D01*
X148158566Y-88339149D01*
X148168521Y-88279806D01*
X148152811Y-88240335D01*
X147979790Y-88240335D01*
X147958036Y-88243616D01*
X147901206Y-88231891D01*
X147827538Y-88209614D01*
X147748561Y-88181494D01*
X147424829Y-88181494D01*
X147348200Y-88236058D01*
X147227548Y-88312936D01*
X147116028Y-88359929D01*
X146995082Y-88382280D01*
X146846154Y-88385229D01*
X146822933Y-88384428D01*
X146688949Y-88375439D01*
X146589976Y-88358707D01*
X146510392Y-88331203D01*
X146484991Y-88318867D01*
X146319964Y-88205894D01*
X146191178Y-88059433D01*
X146102162Y-87884930D01*
X146056449Y-87687833D01*
X146053273Y-87652952D01*
X146046926Y-87533398D01*
X146050859Y-87459169D01*
X146068639Y-87425184D01*
X146103835Y-87426360D01*
X146160016Y-87457618D01*
X146180680Y-87471541D01*
X146334808Y-87572600D01*
X146521826Y-87687409D01*
X146728542Y-87808214D01*
X146941766Y-87927262D01*
X147098455Y-88010958D01*
X147424829Y-88181494D01*
X147748561Y-88181494D01*
X147745474Y-88180395D01*
X147703155Y-88158501D01*
X147691723Y-88136312D01*
X147702318Y-88106207D01*
X147703854Y-88103223D01*
X147728785Y-88057428D01*
X147740299Y-88039048D01*
X147762603Y-88047760D01*
X147808979Y-88080777D01*
X147866651Y-88127361D01*
X147922843Y-88176774D01*
X147964780Y-88218280D01*
X147979790Y-88240335D01*
X148152811Y-88240335D01*
X148139531Y-88206972D01*
X148069555Y-88117300D01*
X147956553Y-88007440D01*
X147956222Y-88007144D01*
X147803327Y-87870270D01*
X147831010Y-87745015D01*
X147838529Y-87657958D01*
X147647404Y-87657958D01*
X147633224Y-87792548D01*
X147626640Y-87820150D01*
X147596266Y-87906365D01*
X147556284Y-87988124D01*
X147514517Y-88052025D01*
X147478791Y-88084670D01*
X147471193Y-88086387D01*
X147438988Y-88075555D01*
X147371947Y-88046208D01*
X147280464Y-88003068D01*
X147193717Y-87960321D01*
X147049392Y-87885101D01*
X146887412Y-87796036D01*
X146717324Y-87698820D01*
X146548673Y-87599150D01*
X146391004Y-87502718D01*
X146253863Y-87415221D01*
X146146796Y-87342352D01*
X146102891Y-87309551D01*
X146105217Y-87282076D01*
X146132164Y-87227763D01*
X146175822Y-87158861D01*
X146228283Y-87087616D01*
X146276499Y-87032183D01*
X146017437Y-87032183D01*
X146012054Y-87055212D01*
X145989455Y-87096484D01*
X145963149Y-87133723D01*
X145948615Y-87145646D01*
X145924973Y-87130866D01*
X145874599Y-87092664D01*
X145826210Y-87053813D01*
X145767805Y-87002359D01*
X145732233Y-86963903D01*
X145726599Y-86949521D01*
X145753561Y-86951182D01*
X145811754Y-86964369D01*
X145884253Y-86984272D01*
X145954133Y-87006081D01*
X146004469Y-87024986D01*
X146017437Y-87032183D01*
X146276499Y-87032183D01*
X146281637Y-87026276D01*
X146293201Y-87014858D01*
X146412490Y-86914887D01*
X146529045Y-86850398D01*
X146658985Y-86815240D01*
X146818431Y-86803265D01*
X146848358Y-86803090D01*
X146973021Y-86805973D01*
X147063706Y-86816068D01*
X147137093Y-86836170D01*
X147193789Y-86860955D01*
X147332999Y-86951226D01*
X147460726Y-87073174D01*
X147559713Y-87209589D01*
X147578117Y-87244286D01*
X147618030Y-87362217D01*
X147641732Y-87507312D01*
X147647404Y-87657958D01*
X147838529Y-87657958D01*
X147844097Y-87593495D01*
X147825072Y-87421056D01*
X147776428Y-87244041D01*
X147741582Y-87158497D01*
X147648706Y-87006625D01*
X147518704Y-86864864D01*
X147365182Y-86746763D01*
X147280036Y-86698936D01*
X147207920Y-86665576D01*
X147145344Y-86643962D01*
X147077728Y-86631580D01*
X146990493Y-86625911D01*
X146869058Y-86624439D01*
X146848358Y-86624425D01*
X146721685Y-86625434D01*
G36*
X151736067Y-88145612D02*
G01*
X151623937Y-88183941D01*
X151564174Y-88226802D01*
X151483720Y-88332173D01*
X151447241Y-88443941D01*
X151449739Y-88554811D01*
X151486216Y-88657487D01*
X151551674Y-88744674D01*
X151641116Y-88809078D01*
X151749542Y-88843402D01*
X151871955Y-88840353D01*
X151964724Y-88811454D01*
X152057152Y-88746416D01*
X152117696Y-88653096D01*
X152146291Y-88542878D01*
X152144822Y-88493193D01*
X151946156Y-88493193D01*
X151923764Y-88571181D01*
X151889648Y-88606166D01*
X151827269Y-88640255D01*
X151775266Y-88636986D01*
X151726153Y-88608386D01*
X151679183Y-88559483D01*
X151659392Y-88519699D01*
X151665649Y-88461625D01*
X151700908Y-88399679D01*
X151750960Y-88353372D01*
X151789792Y-88340641D01*
X151865347Y-88362782D01*
X151922903Y-88418600D01*
X151946152Y-88492187D01*
X151946156Y-88493193D01*
X152144822Y-88493193D01*
X152142869Y-88427149D01*
X152107363Y-88317295D01*
X152039705Y-88224701D01*
X151968495Y-88173780D01*
X151857337Y-88141384D01*
X151736067Y-88145612D01*
G37*
X151736067Y-88145612D02*
X151623937Y-88183941D01*
X151564174Y-88226802D01*
X151483720Y-88332173D01*
X151447241Y-88443941D01*
X151449739Y-88554811D01*
X151486216Y-88657487D01*
X151551674Y-88744674D01*
X151641116Y-88809078D01*
X151749542Y-88843402D01*
X151871955Y-88840353D01*
X151964724Y-88811454D01*
X152057152Y-88746416D01*
X152117696Y-88653096D01*
X152146291Y-88542878D01*
X152144822Y-88493193D01*
X151946156Y-88493193D01*
X151923764Y-88571181D01*
X151889648Y-88606166D01*
X151827269Y-88640255D01*
X151775266Y-88636986D01*
X151726153Y-88608386D01*
X151679183Y-88559483D01*
X151659392Y-88519699D01*
X151665649Y-88461625D01*
X151700908Y-88399679D01*
X151750960Y-88353372D01*
X151789792Y-88340641D01*
X151865347Y-88362782D01*
X151922903Y-88418600D01*
X151946152Y-88492187D01*
X151946156Y-88493193D01*
X152144822Y-88493193D01*
X152142869Y-88427149D01*
X152107363Y-88317295D01*
X152039705Y-88224701D01*
X151968495Y-88173780D01*
X151857337Y-88141384D01*
X151736067Y-88145612D01*
G36*
X147149891Y-89751659D02*
G01*
X147106117Y-89801342D01*
X147090014Y-89893280D01*
X147089900Y-89903885D01*
X147089900Y-90011654D01*
X146987114Y-89984219D01*
X146887573Y-89971934D01*
X146822019Y-89997377D01*
X146790257Y-90060630D01*
X146789303Y-90066422D01*
X146793860Y-90104883D01*
X146827500Y-90137566D01*
X146898033Y-90173371D01*
X147014968Y-90225097D01*
X146963445Y-90297454D01*
X146919173Y-90382877D01*
X146913814Y-90454217D01*
X146946762Y-90503436D01*
X146980115Y-90517948D01*
X147028298Y-90522223D01*
X147070609Y-90501027D01*
X147123393Y-90445921D01*
X147126311Y-90442467D01*
X147204314Y-90349871D01*
X147264799Y-90438549D01*
X147328726Y-90504989D01*
X147395725Y-90527770D01*
X147457636Y-90504534D01*
X147466196Y-90496717D01*
X147493673Y-90447981D01*
X147482876Y-90387929D01*
X147432174Y-90307581D01*
X147431768Y-90307048D01*
X147366829Y-90221909D01*
X147438124Y-90196606D01*
X147522060Y-90162046D01*
X147567121Y-90127300D01*
X147584217Y-90081832D01*
X147585696Y-90054086D01*
X147580530Y-90004735D01*
X147554798Y-89984725D01*
X147496707Y-89981490D01*
X147418140Y-89987746D01*
X147352689Y-90001559D01*
X147351883Y-90001836D01*
X147319349Y-90009235D01*
X147301581Y-89995165D01*
X147292701Y-89948958D01*
X147288320Y-89886513D01*
X147281110Y-89806890D01*
X147267175Y-89764843D01*
X147240361Y-89747101D01*
X147221984Y-89743444D01*
X147149891Y-89751659D01*
G37*
X147149891Y-89751659D02*
X147106117Y-89801342D01*
X147090014Y-89893280D01*
X147089900Y-89903885D01*
X147089900Y-90011654D01*
X146987114Y-89984219D01*
X146887573Y-89971934D01*
X146822019Y-89997377D01*
X146790257Y-90060630D01*
X146789303Y-90066422D01*
X146793860Y-90104883D01*
X146827500Y-90137566D01*
X146898033Y-90173371D01*
X147014968Y-90225097D01*
X146963445Y-90297454D01*
X146919173Y-90382877D01*
X146913814Y-90454217D01*
X146946762Y-90503436D01*
X146980115Y-90517948D01*
X147028298Y-90522223D01*
X147070609Y-90501027D01*
X147123393Y-90445921D01*
X147126311Y-90442467D01*
X147204314Y-90349871D01*
X147264799Y-90438549D01*
X147328726Y-90504989D01*
X147395725Y-90527770D01*
X147457636Y-90504534D01*
X147466196Y-90496717D01*
X147493673Y-90447981D01*
X147482876Y-90387929D01*
X147432174Y-90307581D01*
X147431768Y-90307048D01*
X147366829Y-90221909D01*
X147438124Y-90196606D01*
X147522060Y-90162046D01*
X147567121Y-90127300D01*
X147584217Y-90081832D01*
X147585696Y-90054086D01*
X147580530Y-90004735D01*
X147554798Y-89984725D01*
X147496707Y-89981490D01*
X147418140Y-89987746D01*
X147352689Y-90001559D01*
X147351883Y-90001836D01*
X147319349Y-90009235D01*
X147301581Y-89995165D01*
X147292701Y-89948958D01*
X147288320Y-89886513D01*
X147281110Y-89806890D01*
X147267175Y-89764843D01*
X147240361Y-89747101D01*
X147221984Y-89743444D01*
X147149891Y-89751659D01*
G36*
X149868279Y-88398888D02*
G01*
X149746857Y-88417872D01*
X149505991Y-88500643D01*
X149282291Y-88626820D01*
X149081933Y-88790173D01*
X148911094Y-88984475D01*
X148775952Y-89203497D01*
X148682683Y-89441011D01*
X148665251Y-89508502D01*
X148642319Y-89665074D01*
X148635862Y-89847033D01*
X148645512Y-90031785D01*
X148670898Y-90196734D01*
X148676915Y-90221820D01*
X148718380Y-90383674D01*
X148644324Y-90461807D01*
X148550855Y-90584065D01*
X148501074Y-90713517D01*
X148488298Y-90844796D01*
X148510901Y-91008380D01*
X148575209Y-91147258D01*
X148675974Y-91256242D01*
X148807946Y-91330146D01*
X148965875Y-91363783D01*
X149015059Y-91365271D01*
X149106766Y-91357462D01*
X149190725Y-91339084D01*
X149212923Y-91330954D01*
X149285438Y-91290892D01*
X149359917Y-91237930D01*
X149366102Y-91232809D01*
X149443006Y-91167985D01*
X149633069Y-91233767D01*
X149737141Y-91266329D01*
X149832301Y-91286309D01*
X149937711Y-91296467D01*
X150072533Y-91299562D01*
X150090100Y-91299590D01*
X150341337Y-91284575D01*
X150561551Y-91236553D01*
X150761184Y-91151182D01*
X150950676Y-91024121D01*
X151120536Y-90871177D01*
X151302095Y-90656906D01*
X151347913Y-90578078D01*
X151139059Y-90578078D01*
X151076362Y-90660711D01*
X150993094Y-90749818D01*
X150878878Y-90845027D01*
X150750292Y-90934362D01*
X150623918Y-91005847D01*
X150559899Y-91033766D01*
X150336198Y-91099441D01*
X150120403Y-91123013D01*
X149898992Y-91104891D01*
X149705240Y-91059637D01*
X149536495Y-91010595D01*
X149524810Y-90838831D01*
X149521525Y-90803379D01*
X149346114Y-90803379D01*
X149342816Y-90915738D01*
X149306304Y-91008743D01*
X149227515Y-91106393D01*
X149121856Y-91165621D01*
X148999019Y-91183345D01*
X148868695Y-91156483D01*
X148856707Y-91151680D01*
X148763956Y-91087123D01*
X148697989Y-90989097D01*
X148667534Y-90871672D01*
X148666466Y-90845045D01*
X148687490Y-90724181D01*
X148744250Y-90627326D01*
X148827278Y-90556901D01*
X148927104Y-90515327D01*
X149034262Y-90505024D01*
X149139281Y-90528414D01*
X149232695Y-90587916D01*
X149303180Y-90682266D01*
X149346114Y-90803379D01*
X149521525Y-90803379D01*
X149516041Y-90744218D01*
X149504599Y-90665615D01*
X149493787Y-90622573D01*
X149491046Y-90610399D01*
X149497858Y-90600667D01*
X149519191Y-90593105D01*
X149560012Y-90587443D01*
X149625290Y-90583406D01*
X149719993Y-90580725D01*
X149849089Y-90579126D01*
X150017545Y-90578338D01*
X150230331Y-90578089D01*
X150306754Y-90578078D01*
X151139059Y-90578078D01*
X151347913Y-90578078D01*
X151436050Y-90426443D01*
X151521918Y-90182715D01*
X151545304Y-90023407D01*
X151361371Y-90023407D01*
X151354867Y-90062725D01*
X151338015Y-90133715D01*
X151319883Y-90201385D01*
X151278394Y-90349249D01*
X150281276Y-90349249D01*
X150051975Y-90348827D01*
X149831057Y-90347624D01*
X149625466Y-90345735D01*
X149442144Y-90343258D01*
X149288033Y-90340287D01*
X149170077Y-90336918D01*
X149095218Y-90333248D01*
X149089607Y-90332804D01*
X148895055Y-90316358D01*
X148871063Y-90224746D01*
X148849645Y-90141418D01*
X148830812Y-90065770D01*
X148830194Y-90063213D01*
X148813316Y-89993293D01*
X150087344Y-89993293D01*
X150391540Y-89993589D01*
X150647941Y-89994525D01*
X150859599Y-89996172D01*
X151029566Y-89998603D01*
X151160894Y-90001890D01*
X151256635Y-90006106D01*
X151319842Y-90011321D01*
X151353567Y-90017610D01*
X151361371Y-90023407D01*
X151545304Y-90023407D01*
X151559215Y-89928652D01*
X151551259Y-89751752D01*
X151361371Y-89751752D01*
X151356493Y-89760447D01*
X151339192Y-89767736D01*
X151305473Y-89773740D01*
X151251338Y-89778578D01*
X151172791Y-89782369D01*
X151065834Y-89785235D01*
X150926471Y-89787295D01*
X150750705Y-89788669D01*
X150534538Y-89789477D01*
X150273974Y-89789838D01*
X150090100Y-89789890D01*
X149800271Y-89789744D01*
X149557294Y-89789225D01*
X149357175Y-89788213D01*
X149195914Y-89786589D01*
X149069516Y-89784233D01*
X148973984Y-89781024D01*
X148905321Y-89776843D01*
X148859529Y-89771570D01*
X148832613Y-89765085D01*
X148820574Y-89757268D01*
X148818829Y-89751752D01*
X148823707Y-89743057D01*
X148841008Y-89735768D01*
X148874727Y-89729764D01*
X148928862Y-89724926D01*
X149007409Y-89721134D01*
X149114366Y-89718268D01*
X149253729Y-89716209D01*
X149429495Y-89714835D01*
X149645662Y-89714027D01*
X149906226Y-89713666D01*
X150090100Y-89713614D01*
X150379930Y-89713760D01*
X150622906Y-89714279D01*
X150823026Y-89715291D01*
X150984286Y-89716915D01*
X151110684Y-89719271D01*
X151206216Y-89722480D01*
X151274879Y-89726661D01*
X151320671Y-89731934D01*
X151347587Y-89738419D01*
X151359626Y-89746236D01*
X151361371Y-89751752D01*
X151551259Y-89751752D01*
X151547455Y-89667181D01*
X151499366Y-89458543D01*
X151310520Y-89458543D01*
X151286536Y-89465498D01*
X151214298Y-89471368D01*
X151093382Y-89476164D01*
X150923359Y-89479894D01*
X150703805Y-89482568D01*
X150434292Y-89484194D01*
X150114396Y-89484782D01*
X150090100Y-89484785D01*
X149846416Y-89484539D01*
X149618946Y-89483834D01*
X149412602Y-89482719D01*
X149232298Y-89481243D01*
X149082946Y-89479455D01*
X148969461Y-89477404D01*
X148896756Y-89475140D01*
X148869743Y-89472711D01*
X148869680Y-89472587D01*
X148878297Y-89443582D01*
X148899955Y-89385144D01*
X148910578Y-89358172D01*
X148951477Y-89255956D01*
X151236839Y-89255956D01*
X151273680Y-89344129D01*
X151297917Y-89408658D01*
X151310160Y-89454014D01*
X151310520Y-89458543D01*
X151499366Y-89458543D01*
X151486155Y-89401230D01*
X151399529Y-89183851D01*
X151298848Y-89017570D01*
X151062964Y-89017570D01*
X151059614Y-89027186D01*
X151043854Y-89034858D01*
X151011133Y-89040807D01*
X150956901Y-89045250D01*
X150876605Y-89048406D01*
X150765694Y-89050495D01*
X150619618Y-89051734D01*
X150433824Y-89052343D01*
X150203763Y-89052540D01*
X150085594Y-89052553D01*
X149087707Y-89052553D01*
X149211546Y-88926823D01*
X149392889Y-88777719D01*
X149600267Y-88667504D01*
X149825437Y-88597502D01*
X150060161Y-88569039D01*
X150296196Y-88583440D01*
X150525302Y-88642030D01*
X150649459Y-88695619D01*
X150740134Y-88747318D01*
X150838117Y-88812678D01*
X150931183Y-88882427D01*
X151007106Y-88947293D01*
X151053659Y-88998004D01*
X151058456Y-89005793D01*
X151062964Y-89017570D01*
X151298848Y-89017570D01*
X151278951Y-88984710D01*
X151118132Y-88801831D01*
X150927036Y-88643408D01*
X150715630Y-88517633D01*
X150493879Y-88432702D01*
X150482123Y-88429522D01*
X150351990Y-88405778D01*
X150193114Y-88392549D01*
X150025282Y-88390148D01*
X149868279Y-88398888D01*
G37*
X149868279Y-88398888D02*
X149746857Y-88417872D01*
X149505991Y-88500643D01*
X149282291Y-88626820D01*
X149081933Y-88790173D01*
X148911094Y-88984475D01*
X148775952Y-89203497D01*
X148682683Y-89441011D01*
X148665251Y-89508502D01*
X148642319Y-89665074D01*
X148635862Y-89847033D01*
X148645512Y-90031785D01*
X148670898Y-90196734D01*
X148676915Y-90221820D01*
X148718380Y-90383674D01*
X148644324Y-90461807D01*
X148550855Y-90584065D01*
X148501074Y-90713517D01*
X148488298Y-90844796D01*
X148510901Y-91008380D01*
X148575209Y-91147258D01*
X148675974Y-91256242D01*
X148807946Y-91330146D01*
X148965875Y-91363783D01*
X149015059Y-91365271D01*
X149106766Y-91357462D01*
X149190725Y-91339084D01*
X149212923Y-91330954D01*
X149285438Y-91290892D01*
X149359917Y-91237930D01*
X149366102Y-91232809D01*
X149443006Y-91167985D01*
X149633069Y-91233767D01*
X149737141Y-91266329D01*
X149832301Y-91286309D01*
X149937711Y-91296467D01*
X150072533Y-91299562D01*
X150090100Y-91299590D01*
X150341337Y-91284575D01*
X150561551Y-91236553D01*
X150761184Y-91151182D01*
X150950676Y-91024121D01*
X151120536Y-90871177D01*
X151302095Y-90656906D01*
X151347913Y-90578078D01*
X151139059Y-90578078D01*
X151076362Y-90660711D01*
X150993094Y-90749818D01*
X150878878Y-90845027D01*
X150750292Y-90934362D01*
X150623918Y-91005847D01*
X150559899Y-91033766D01*
X150336198Y-91099441D01*
X150120403Y-91123013D01*
X149898992Y-91104891D01*
X149705240Y-91059637D01*
X149536495Y-91010595D01*
X149524810Y-90838831D01*
X149521525Y-90803379D01*
X149346114Y-90803379D01*
X149342816Y-90915738D01*
X149306304Y-91008743D01*
X149227515Y-91106393D01*
X149121856Y-91165621D01*
X148999019Y-91183345D01*
X148868695Y-91156483D01*
X148856707Y-91151680D01*
X148763956Y-91087123D01*
X148697989Y-90989097D01*
X148667534Y-90871672D01*
X148666466Y-90845045D01*
X148687490Y-90724181D01*
X148744250Y-90627326D01*
X148827278Y-90556901D01*
X148927104Y-90515327D01*
X149034262Y-90505024D01*
X149139281Y-90528414D01*
X149232695Y-90587916D01*
X149303180Y-90682266D01*
X149346114Y-90803379D01*
X149521525Y-90803379D01*
X149516041Y-90744218D01*
X149504599Y-90665615D01*
X149493787Y-90622573D01*
X149491046Y-90610399D01*
X149497858Y-90600667D01*
X149519191Y-90593105D01*
X149560012Y-90587443D01*
X149625290Y-90583406D01*
X149719993Y-90580725D01*
X149849089Y-90579126D01*
X150017545Y-90578338D01*
X150230331Y-90578089D01*
X150306754Y-90578078D01*
X151139059Y-90578078D01*
X151347913Y-90578078D01*
X151436050Y-90426443D01*
X151521918Y-90182715D01*
X151545304Y-90023407D01*
X151361371Y-90023407D01*
X151354867Y-90062725D01*
X151338015Y-90133715D01*
X151319883Y-90201385D01*
X151278394Y-90349249D01*
X150281276Y-90349249D01*
X150051975Y-90348827D01*
X149831057Y-90347624D01*
X149625466Y-90345735D01*
X149442144Y-90343258D01*
X149288033Y-90340287D01*
X149170077Y-90336918D01*
X149095218Y-90333248D01*
X149089607Y-90332804D01*
X148895055Y-90316358D01*
X148871063Y-90224746D01*
X148849645Y-90141418D01*
X148830812Y-90065770D01*
X148830194Y-90063213D01*
X148813316Y-89993293D01*
X150087344Y-89993293D01*
X150391540Y-89993589D01*
X150647941Y-89994525D01*
X150859599Y-89996172D01*
X151029566Y-89998603D01*
X151160894Y-90001890D01*
X151256635Y-90006106D01*
X151319842Y-90011321D01*
X151353567Y-90017610D01*
X151361371Y-90023407D01*
X151545304Y-90023407D01*
X151559215Y-89928652D01*
X151551259Y-89751752D01*
X151361371Y-89751752D01*
X151356493Y-89760447D01*
X151339192Y-89767736D01*
X151305473Y-89773740D01*
X151251338Y-89778578D01*
X151172791Y-89782369D01*
X151065834Y-89785235D01*
X150926471Y-89787295D01*
X150750705Y-89788669D01*
X150534538Y-89789477D01*
X150273974Y-89789838D01*
X150090100Y-89789890D01*
X149800271Y-89789744D01*
X149557294Y-89789225D01*
X149357175Y-89788213D01*
X149195914Y-89786589D01*
X149069516Y-89784233D01*
X148973984Y-89781024D01*
X148905321Y-89776843D01*
X148859529Y-89771570D01*
X148832613Y-89765085D01*
X148820574Y-89757268D01*
X148818829Y-89751752D01*
X148823707Y-89743057D01*
X148841008Y-89735768D01*
X148874727Y-89729764D01*
X148928862Y-89724926D01*
X149007409Y-89721134D01*
X149114366Y-89718268D01*
X149253729Y-89716209D01*
X149429495Y-89714835D01*
X149645662Y-89714027D01*
X149906226Y-89713666D01*
X150090100Y-89713614D01*
X150379930Y-89713760D01*
X150622906Y-89714279D01*
X150823026Y-89715291D01*
X150984286Y-89716915D01*
X151110684Y-89719271D01*
X151206216Y-89722480D01*
X151274879Y-89726661D01*
X151320671Y-89731934D01*
X151347587Y-89738419D01*
X151359626Y-89746236D01*
X151361371Y-89751752D01*
X151551259Y-89751752D01*
X151547455Y-89667181D01*
X151499366Y-89458543D01*
X151310520Y-89458543D01*
X151286536Y-89465498D01*
X151214298Y-89471368D01*
X151093382Y-89476164D01*
X150923359Y-89479894D01*
X150703805Y-89482568D01*
X150434292Y-89484194D01*
X150114396Y-89484782D01*
X150090100Y-89484785D01*
X149846416Y-89484539D01*
X149618946Y-89483834D01*
X149412602Y-89482719D01*
X149232298Y-89481243D01*
X149082946Y-89479455D01*
X148969461Y-89477404D01*
X148896756Y-89475140D01*
X148869743Y-89472711D01*
X148869680Y-89472587D01*
X148878297Y-89443582D01*
X148899955Y-89385144D01*
X148910578Y-89358172D01*
X148951477Y-89255956D01*
X151236839Y-89255956D01*
X151273680Y-89344129D01*
X151297917Y-89408658D01*
X151310160Y-89454014D01*
X151310520Y-89458543D01*
X151499366Y-89458543D01*
X151486155Y-89401230D01*
X151399529Y-89183851D01*
X151298848Y-89017570D01*
X151062964Y-89017570D01*
X151059614Y-89027186D01*
X151043854Y-89034858D01*
X151011133Y-89040807D01*
X150956901Y-89045250D01*
X150876605Y-89048406D01*
X150765694Y-89050495D01*
X150619618Y-89051734D01*
X150433824Y-89052343D01*
X150203763Y-89052540D01*
X150085594Y-89052553D01*
X149087707Y-89052553D01*
X149211546Y-88926823D01*
X149392889Y-88777719D01*
X149600267Y-88667504D01*
X149825437Y-88597502D01*
X150060161Y-88569039D01*
X150296196Y-88583440D01*
X150525302Y-88642030D01*
X150649459Y-88695619D01*
X150740134Y-88747318D01*
X150838117Y-88812678D01*
X150931183Y-88882427D01*
X151007106Y-88947293D01*
X151053659Y-88998004D01*
X151058456Y-89005793D01*
X151062964Y-89017570D01*
X151298848Y-89017570D01*
X151278951Y-88984710D01*
X151118132Y-88801831D01*
X150927036Y-88643408D01*
X150715630Y-88517633D01*
X150493879Y-88432702D01*
X150482123Y-88429522D01*
X150351990Y-88405778D01*
X150193114Y-88392549D01*
X150025282Y-88390148D01*
X149868279Y-88398888D01*
G36*
X145310680Y-90726781D02*
G01*
X145287215Y-90799411D01*
X145284695Y-90842776D01*
X145284695Y-90952395D01*
X145186885Y-90926288D01*
X145090153Y-90911296D01*
X145030695Y-90929007D01*
X145006033Y-90980408D01*
X145005015Y-90998845D01*
X145014784Y-91046500D01*
X145052513Y-91080580D01*
X145105924Y-91104890D01*
X145206832Y-91144528D01*
X145155012Y-91217303D01*
X145115504Y-91299319D01*
X145116214Y-91364422D01*
X145147901Y-91405347D01*
X145201325Y-91414825D01*
X145267244Y-91385592D01*
X145313077Y-91341598D01*
X145380380Y-91260979D01*
X145435971Y-91339048D01*
X145493439Y-91393872D01*
X145558104Y-91418691D01*
X145613763Y-91408231D01*
X145623700Y-91400167D01*
X145640180Y-91351718D01*
X145628041Y-91283122D01*
X145590895Y-91213990D01*
X145542270Y-91150703D01*
X145648668Y-91099576D01*
X145725278Y-91047559D01*
X145756234Y-90994284D01*
X145745729Y-90948548D01*
X145697954Y-90919149D01*
X145617103Y-90914884D01*
X145565459Y-90924960D01*
X145462673Y-90952395D01*
X145462673Y-90842407D01*
X145454739Y-90760191D01*
X145428415Y-90715447D01*
X145417522Y-90708256D01*
X145355471Y-90695023D01*
X145310680Y-90726781D01*
G37*
X145310680Y-90726781D02*
X145287215Y-90799411D01*
X145284695Y-90842776D01*
X145284695Y-90952395D01*
X145186885Y-90926288D01*
X145090153Y-90911296D01*
X145030695Y-90929007D01*
X145006033Y-90980408D01*
X145005015Y-90998845D01*
X145014784Y-91046500D01*
X145052513Y-91080580D01*
X145105924Y-91104890D01*
X145206832Y-91144528D01*
X145155012Y-91217303D01*
X145115504Y-91299319D01*
X145116214Y-91364422D01*
X145147901Y-91405347D01*
X145201325Y-91414825D01*
X145267244Y-91385592D01*
X145313077Y-91341598D01*
X145380380Y-91260979D01*
X145435971Y-91339048D01*
X145493439Y-91393872D01*
X145558104Y-91418691D01*
X145613763Y-91408231D01*
X145623700Y-91400167D01*
X145640180Y-91351718D01*
X145628041Y-91283122D01*
X145590895Y-91213990D01*
X145542270Y-91150703D01*
X145648668Y-91099576D01*
X145725278Y-91047559D01*
X145756234Y-90994284D01*
X145745729Y-90948548D01*
X145697954Y-90919149D01*
X145617103Y-90914884D01*
X145565459Y-90924960D01*
X145462673Y-90952395D01*
X145462673Y-90842407D01*
X145454739Y-90760191D01*
X145428415Y-90715447D01*
X145417522Y-90708256D01*
X145355471Y-90695023D01*
X145310680Y-90726781D01*
G36*
X160835977Y-90430496D02*
G01*
X160769136Y-90437143D01*
X160725369Y-90452677D01*
X160690817Y-90480286D01*
X160682669Y-90488731D01*
X160652739Y-90527974D01*
X160635447Y-90575892D01*
X160627560Y-90646969D01*
X160625832Y-90743344D01*
X160627866Y-90847118D01*
X160636262Y-90914918D01*
X160654455Y-90961537D01*
X160685864Y-91001748D01*
X160731060Y-91041430D01*
X160780703Y-91057273D01*
X160856303Y-91055566D01*
X160866667Y-91054620D01*
X160987438Y-91043201D01*
X160987438Y-91244585D01*
X160986807Y-91344570D01*
X160982947Y-91403097D01*
X160972902Y-91429557D01*
X160953721Y-91433340D01*
X160930231Y-91426494D01*
X160822544Y-91410471D01*
X160729719Y-91442432D01*
X160685491Y-91478678D01*
X160654675Y-91512816D01*
X160635191Y-91548666D01*
X160624453Y-91598418D01*
X160619874Y-91674259D01*
X160618867Y-91788380D01*
X160618865Y-91792624D01*
X160618769Y-92040040D01*
X160688689Y-92048085D01*
X160758609Y-92056131D01*
X160758609Y-91840142D01*
X160763705Y-91707516D01*
X160780783Y-91618478D01*
X160812522Y-91566622D01*
X160861606Y-91545540D01*
X160882467Y-91544244D01*
X160929403Y-91553497D01*
X160960516Y-91586313D01*
X160978604Y-91650278D01*
X160986462Y-91752978D01*
X160987438Y-91829009D01*
X160987438Y-92052753D01*
X161139990Y-92052753D01*
X161139990Y-90724683D01*
X160988271Y-90724683D01*
X160985584Y-90807154D01*
X160967876Y-90875210D01*
X160942943Y-90906572D01*
X160875889Y-90931337D01*
X160820230Y-90912686D01*
X160795771Y-90891288D01*
X160768931Y-90847561D01*
X160761481Y-90780724D01*
X160765058Y-90723313D01*
X160786728Y-90624816D01*
X160826051Y-90566646D01*
X160878380Y-90552133D01*
X160939067Y-90584606D01*
X160947483Y-90592607D01*
X160975663Y-90646825D01*
X160988271Y-90724683D01*
X161139990Y-90724683D01*
X161139990Y-90430857D01*
X160939749Y-90429544D01*
X160835977Y-90430496D01*
G37*
X160835977Y-90430496D02*
X160769136Y-90437143D01*
X160725369Y-90452677D01*
X160690817Y-90480286D01*
X160682669Y-90488731D01*
X160652739Y-90527974D01*
X160635447Y-90575892D01*
X160627560Y-90646969D01*
X160625832Y-90743344D01*
X160627866Y-90847118D01*
X160636262Y-90914918D01*
X160654455Y-90961537D01*
X160685864Y-91001748D01*
X160731060Y-91041430D01*
X160780703Y-91057273D01*
X160856303Y-91055566D01*
X160866667Y-91054620D01*
X160987438Y-91043201D01*
X160987438Y-91244585D01*
X160986807Y-91344570D01*
X160982947Y-91403097D01*
X160972902Y-91429557D01*
X160953721Y-91433340D01*
X160930231Y-91426494D01*
X160822544Y-91410471D01*
X160729719Y-91442432D01*
X160685491Y-91478678D01*
X160654675Y-91512816D01*
X160635191Y-91548666D01*
X160624453Y-91598418D01*
X160619874Y-91674259D01*
X160618867Y-91788380D01*
X160618865Y-91792624D01*
X160618769Y-92040040D01*
X160688689Y-92048085D01*
X160758609Y-92056131D01*
X160758609Y-91840142D01*
X160763705Y-91707516D01*
X160780783Y-91618478D01*
X160812522Y-91566622D01*
X160861606Y-91545540D01*
X160882467Y-91544244D01*
X160929403Y-91553497D01*
X160960516Y-91586313D01*
X160978604Y-91650278D01*
X160986462Y-91752978D01*
X160987438Y-91829009D01*
X160987438Y-92052753D01*
X161139990Y-92052753D01*
X161139990Y-90724683D01*
X160988271Y-90724683D01*
X160985584Y-90807154D01*
X160967876Y-90875210D01*
X160942943Y-90906572D01*
X160875889Y-90931337D01*
X160820230Y-90912686D01*
X160795771Y-90891288D01*
X160768931Y-90847561D01*
X160761481Y-90780724D01*
X160765058Y-90723313D01*
X160786728Y-90624816D01*
X160826051Y-90566646D01*
X160878380Y-90552133D01*
X160939067Y-90584606D01*
X160947483Y-90592607D01*
X160975663Y-90646825D01*
X160988271Y-90724683D01*
X161139990Y-90724683D01*
X161139990Y-90430857D01*
X160939749Y-90429544D01*
X160835977Y-90430496D01*
G36*
X160198463Y-91417148D02*
G01*
X160192841Y-91418621D01*
X160121329Y-91445455D01*
X160072425Y-91485448D01*
X160042130Y-91547542D01*
X160026444Y-91640678D01*
X160021367Y-91773799D01*
X160021272Y-91802166D01*
X160021272Y-92048774D01*
X160222690Y-92050090D01*
X160335012Y-92048037D01*
X160409919Y-92038563D01*
X160460588Y-92019351D01*
X160482029Y-92004505D01*
X160526963Y-91945559D01*
X160539950Y-91862062D01*
X160536648Y-91845112D01*
X160402653Y-91845112D01*
X160392507Y-91896458D01*
X160355136Y-91919612D01*
X160280139Y-91920783D01*
X160276435Y-91920480D01*
X160212282Y-91907759D01*
X160183663Y-91877717D01*
X160178412Y-91855706D01*
X160178353Y-91820655D01*
X160199615Y-91803856D01*
X160254602Y-91798744D01*
X160286470Y-91798499D01*
X160359330Y-91802081D01*
X160393953Y-91816122D01*
X160402653Y-91845112D01*
X160536648Y-91845112D01*
X160521780Y-91768812D01*
X160466009Y-91707337D01*
X160370751Y-91676157D01*
X160296366Y-91671372D01*
X160221674Y-91669333D01*
X160185729Y-91659318D01*
X160176471Y-91635477D01*
X160178412Y-91614164D01*
X160197440Y-91571447D01*
X160247727Y-91551771D01*
X160270830Y-91548866D01*
X160338715Y-91550907D01*
X160386666Y-91566991D01*
X160387742Y-91567845D01*
X160425055Y-91571963D01*
X160466325Y-91545961D01*
X160494217Y-91505899D01*
X160493059Y-91470261D01*
X160448346Y-91437840D01*
X160371936Y-91416047D01*
X160282439Y-91408083D01*
X160198463Y-91417148D01*
G37*
X160198463Y-91417148D02*
X160192841Y-91418621D01*
X160121329Y-91445455D01*
X160072425Y-91485448D01*
X160042130Y-91547542D01*
X160026444Y-91640678D01*
X160021367Y-91773799D01*
X160021272Y-91802166D01*
X160021272Y-92048774D01*
X160222690Y-92050090D01*
X160335012Y-92048037D01*
X160409919Y-92038563D01*
X160460588Y-92019351D01*
X160482029Y-92004505D01*
X160526963Y-91945559D01*
X160539950Y-91862062D01*
X160536648Y-91845112D01*
X160402653Y-91845112D01*
X160392507Y-91896458D01*
X160355136Y-91919612D01*
X160280139Y-91920783D01*
X160276435Y-91920480D01*
X160212282Y-91907759D01*
X160183663Y-91877717D01*
X160178412Y-91855706D01*
X160178353Y-91820655D01*
X160199615Y-91803856D01*
X160254602Y-91798744D01*
X160286470Y-91798499D01*
X160359330Y-91802081D01*
X160393953Y-91816122D01*
X160402653Y-91845112D01*
X160536648Y-91845112D01*
X160521780Y-91768812D01*
X160466009Y-91707337D01*
X160370751Y-91676157D01*
X160296366Y-91671372D01*
X160221674Y-91669333D01*
X160185729Y-91659318D01*
X160176471Y-91635477D01*
X160178412Y-91614164D01*
X160197440Y-91571447D01*
X160247727Y-91551771D01*
X160270830Y-91548866D01*
X160338715Y-91550907D01*
X160386666Y-91566991D01*
X160387742Y-91567845D01*
X160425055Y-91571963D01*
X160466325Y-91545961D01*
X160494217Y-91505899D01*
X160493059Y-91470261D01*
X160448346Y-91437840D01*
X160371936Y-91416047D01*
X160282439Y-91408083D01*
X160198463Y-91417148D01*
G36*
X159558255Y-91419211D02*
G01*
X159531601Y-91425214D01*
X159484279Y-91440935D01*
X159477619Y-91463497D01*
X159503533Y-91507853D01*
X159545501Y-91553380D01*
X159597391Y-91560100D01*
X159615033Y-91556832D01*
X159679676Y-91553008D01*
X159724142Y-91578529D01*
X159751447Y-91638983D01*
X159764607Y-91739960D01*
X159767017Y-91838453D01*
X159767594Y-91942570D01*
X159771350Y-92005947D01*
X159781321Y-92038695D01*
X159800544Y-92050927D01*
X159831379Y-92052753D01*
X159884794Y-92041001D01*
X159908563Y-92019337D01*
X159913158Y-91981389D01*
X159915639Y-91904621D01*
X159915793Y-91801029D01*
X159914122Y-91707876D01*
X159906857Y-91429830D01*
X159836937Y-91421785D01*
X159783958Y-91425173D01*
X159767017Y-91443967D01*
X159755862Y-91460590D01*
X159735236Y-91448137D01*
X159659223Y-91416500D01*
X159558255Y-91419211D01*
G37*
X159558255Y-91419211D02*
X159531601Y-91425214D01*
X159484279Y-91440935D01*
X159477619Y-91463497D01*
X159503533Y-91507853D01*
X159545501Y-91553380D01*
X159597391Y-91560100D01*
X159615033Y-91556832D01*
X159679676Y-91553008D01*
X159724142Y-91578529D01*
X159751447Y-91638983D01*
X159764607Y-91739960D01*
X159767017Y-91838453D01*
X159767594Y-91942570D01*
X159771350Y-92005947D01*
X159781321Y-92038695D01*
X159800544Y-92050927D01*
X159831379Y-92052753D01*
X159884794Y-92041001D01*
X159908563Y-92019337D01*
X159913158Y-91981389D01*
X159915639Y-91904621D01*
X159915793Y-91801029D01*
X159914122Y-91707876D01*
X159906857Y-91429830D01*
X159836937Y-91421785D01*
X159783958Y-91425173D01*
X159767017Y-91443967D01*
X159755862Y-91460590D01*
X159735236Y-91448137D01*
X159659223Y-91416500D01*
X159558255Y-91419211D01*
G36*
X158953404Y-92052753D02*
G01*
X159029680Y-92052753D01*
X159083606Y-92043895D01*
X159105956Y-92022369D01*
X159105956Y-92022242D01*
X159113461Y-92004553D01*
X159136467Y-92022242D01*
X159187421Y-92044959D01*
X159263250Y-92051738D01*
X159340581Y-92042694D01*
X159392344Y-92020971D01*
X159440776Y-91956795D01*
X159473085Y-91859809D01*
X159487480Y-91745996D01*
X159486531Y-91725491D01*
X159334785Y-91725491D01*
X159321586Y-91828113D01*
X159284662Y-91897053D01*
X159228018Y-91925303D01*
X159220371Y-91925626D01*
X159175702Y-91908955D01*
X159145910Y-91885672D01*
X159117717Y-91829340D01*
X159106026Y-91742624D01*
X159105956Y-91734935D01*
X159120663Y-91634584D01*
X159162122Y-91568989D01*
X159226342Y-91544296D01*
X159229814Y-91544244D01*
X159288964Y-91562664D01*
X159323262Y-91620296D01*
X159334770Y-91720700D01*
X159334785Y-91725491D01*
X159486531Y-91725491D01*
X159482170Y-91631336D01*
X159455364Y-91531810D01*
X159448737Y-91517925D01*
X159390215Y-91453320D01*
X159306953Y-91417254D01*
X159217161Y-91413811D01*
X159139045Y-91447078D01*
X159137738Y-91448137D01*
X159119871Y-91452013D01*
X159109938Y-91422021D01*
X159106158Y-91350893D01*
X159105956Y-91318529D01*
X159105956Y-91162863D01*
X158953404Y-91162863D01*
X158953404Y-92052753D01*
G37*
X158953404Y-92052753D02*
X159029680Y-92052753D01*
X159083606Y-92043895D01*
X159105956Y-92022369D01*
X159105956Y-92022242D01*
X159113461Y-92004553D01*
X159136467Y-92022242D01*
X159187421Y-92044959D01*
X159263250Y-92051738D01*
X159340581Y-92042694D01*
X159392344Y-92020971D01*
X159440776Y-91956795D01*
X159473085Y-91859809D01*
X159487480Y-91745996D01*
X159486531Y-91725491D01*
X159334785Y-91725491D01*
X159321586Y-91828113D01*
X159284662Y-91897053D01*
X159228018Y-91925303D01*
X159220371Y-91925626D01*
X159175702Y-91908955D01*
X159145910Y-91885672D01*
X159117717Y-91829340D01*
X159106026Y-91742624D01*
X159105956Y-91734935D01*
X159120663Y-91634584D01*
X159162122Y-91568989D01*
X159226342Y-91544296D01*
X159229814Y-91544244D01*
X159288964Y-91562664D01*
X159323262Y-91620296D01*
X159334770Y-91720700D01*
X159334785Y-91725491D01*
X159486531Y-91725491D01*
X159482170Y-91631336D01*
X159455364Y-91531810D01*
X159448737Y-91517925D01*
X159390215Y-91453320D01*
X159306953Y-91417254D01*
X159217161Y-91413811D01*
X159139045Y-91447078D01*
X159137738Y-91448137D01*
X159119871Y-91452013D01*
X159109938Y-91422021D01*
X159106158Y-91350893D01*
X159105956Y-91318529D01*
X159105956Y-91162863D01*
X158953404Y-91162863D01*
X158953404Y-92052753D01*
G36*
X158034969Y-91418982D02*
G01*
X158013212Y-91423467D01*
X158013212Y-91423474D01*
X158020649Y-91448687D01*
X158040564Y-91512962D01*
X158070022Y-91606902D01*
X158106089Y-91721110D01*
X158110469Y-91734935D01*
X158151609Y-91862193D01*
X158182528Y-91948745D01*
X158207399Y-92002658D01*
X158230393Y-92032000D01*
X158255683Y-92044835D01*
X158272281Y-92047805D01*
X158299636Y-92047896D01*
X158322483Y-92036297D01*
X158344022Y-92006180D01*
X158367456Y-91950715D01*
X158395988Y-91863073D01*
X158432819Y-91736426D01*
X158454624Y-91658925D01*
X158464006Y-91669573D01*
X158482820Y-91716124D01*
X158506869Y-91785492D01*
X158531955Y-91864591D01*
X158553880Y-91940333D01*
X158568447Y-91999631D01*
X158572022Y-92024918D01*
X158594005Y-92044880D01*
X158644136Y-92052753D01*
X158674921Y-92050594D01*
X158698905Y-92038780D01*
X158720516Y-92009310D01*
X158744182Y-91954181D01*
X158774332Y-91865390D01*
X158809446Y-91754004D01*
X158845216Y-91637859D01*
X158874625Y-91539551D01*
X158894728Y-91469127D01*
X158902579Y-91436635D01*
X158902598Y-91436186D01*
X158880543Y-91422493D01*
X158830532Y-91417117D01*
X158793445Y-91420192D01*
X158767965Y-91436266D01*
X158747652Y-91475615D01*
X158726067Y-91548511D01*
X158711028Y-91607803D01*
X158686781Y-91694854D01*
X158664776Y-91755830D01*
X158648946Y-91780298D01*
X158646355Y-91779425D01*
X158630387Y-91747195D01*
X158604681Y-91680519D01*
X158574654Y-91593493D01*
X158573096Y-91588739D01*
X158540810Y-91497221D01*
X158514261Y-91444884D01*
X158486707Y-91421610D01*
X158458716Y-91417117D01*
X158428299Y-91422763D01*
X158404078Y-91446045D01*
X158380611Y-91496483D01*
X158352452Y-91583596D01*
X158340883Y-91623115D01*
X158281359Y-91829113D01*
X158250082Y-91731173D01*
X158222367Y-91639068D01*
X158194841Y-91539806D01*
X158191031Y-91525175D01*
X158169600Y-91457159D01*
X158143355Y-91425722D01*
X158099311Y-91417253D01*
X158087959Y-91417117D01*
X158034969Y-91418982D01*
G37*
X158034969Y-91418982D02*
X158013212Y-91423467D01*
X158013212Y-91423474D01*
X158020649Y-91448687D01*
X158040564Y-91512962D01*
X158070022Y-91606902D01*
X158106089Y-91721110D01*
X158110469Y-91734935D01*
X158151609Y-91862193D01*
X158182528Y-91948745D01*
X158207399Y-92002658D01*
X158230393Y-92032000D01*
X158255683Y-92044835D01*
X158272281Y-92047805D01*
X158299636Y-92047896D01*
X158322483Y-92036297D01*
X158344022Y-92006180D01*
X158367456Y-91950715D01*
X158395988Y-91863073D01*
X158432819Y-91736426D01*
X158454624Y-91658925D01*
X158464006Y-91669573D01*
X158482820Y-91716124D01*
X158506869Y-91785492D01*
X158531955Y-91864591D01*
X158553880Y-91940333D01*
X158568447Y-91999631D01*
X158572022Y-92024918D01*
X158594005Y-92044880D01*
X158644136Y-92052753D01*
X158674921Y-92050594D01*
X158698905Y-92038780D01*
X158720516Y-92009310D01*
X158744182Y-91954181D01*
X158774332Y-91865390D01*
X158809446Y-91754004D01*
X158845216Y-91637859D01*
X158874625Y-91539551D01*
X158894728Y-91469127D01*
X158902579Y-91436635D01*
X158902598Y-91436186D01*
X158880543Y-91422493D01*
X158830532Y-91417117D01*
X158793445Y-91420192D01*
X158767965Y-91436266D01*
X158747652Y-91475615D01*
X158726067Y-91548511D01*
X158711028Y-91607803D01*
X158686781Y-91694854D01*
X158664776Y-91755830D01*
X158648946Y-91780298D01*
X158646355Y-91779425D01*
X158630387Y-91747195D01*
X158604681Y-91680519D01*
X158574654Y-91593493D01*
X158573096Y-91588739D01*
X158540810Y-91497221D01*
X158514261Y-91444884D01*
X158486707Y-91421610D01*
X158458716Y-91417117D01*
X158428299Y-91422763D01*
X158404078Y-91446045D01*
X158380611Y-91496483D01*
X158352452Y-91583596D01*
X158340883Y-91623115D01*
X158281359Y-91829113D01*
X158250082Y-91731173D01*
X158222367Y-91639068D01*
X158194841Y-91539806D01*
X158191031Y-91525175D01*
X158169600Y-91457159D01*
X158143355Y-91425722D01*
X158099311Y-91417253D01*
X158087959Y-91417117D01*
X158034969Y-91418982D01*
G36*
X157665687Y-91419535D02*
G01*
X157580076Y-91453259D01*
X157559800Y-91468959D01*
X157534476Y-91497186D01*
X157518214Y-91532423D01*
X157509050Y-91585774D01*
X157505019Y-91668342D01*
X157504154Y-91783487D01*
X157504154Y-92046175D01*
X157703788Y-92048759D01*
X157807596Y-92048426D01*
X157874375Y-92042141D01*
X157917860Y-92026902D01*
X157951787Y-91999708D01*
X157958042Y-91993202D01*
X158004334Y-91911650D01*
X158006913Y-91839203D01*
X157877326Y-91839203D01*
X157873873Y-91882352D01*
X157836104Y-91911969D01*
X157779361Y-91925455D01*
X157718992Y-91920208D01*
X157670340Y-91893627D01*
X157657602Y-91876447D01*
X157636698Y-91830981D01*
X157642977Y-91807839D01*
X157684994Y-91799521D01*
X157746494Y-91798499D01*
X157828960Y-91805372D01*
X157870865Y-91827782D01*
X157877326Y-91839203D01*
X158006913Y-91839203D01*
X158007514Y-91822338D01*
X157967837Y-91741350D01*
X157953817Y-91726654D01*
X157898254Y-91689825D01*
X157823135Y-91673552D01*
X157763126Y-91671372D01*
X157676968Y-91665714D01*
X157636069Y-91645928D01*
X157635813Y-91607798D01*
X157654589Y-91572227D01*
X157687401Y-91550223D01*
X157752281Y-91547880D01*
X157790507Y-91552187D01*
X157889360Y-91555178D01*
X157947252Y-91536027D01*
X157976125Y-91509091D01*
X157966485Y-91483904D01*
X157944428Y-91462960D01*
X157868442Y-91424065D01*
X157768668Y-91409697D01*
X157665687Y-91419535D01*
G37*
X157665687Y-91419535D02*
X157580076Y-91453259D01*
X157559800Y-91468959D01*
X157534476Y-91497186D01*
X157518214Y-91532423D01*
X157509050Y-91585774D01*
X157505019Y-91668342D01*
X157504154Y-91783487D01*
X157504154Y-92046175D01*
X157703788Y-92048759D01*
X157807596Y-92048426D01*
X157874375Y-92042141D01*
X157917860Y-92026902D01*
X157951787Y-91999708D01*
X157958042Y-91993202D01*
X158004334Y-91911650D01*
X158006913Y-91839203D01*
X157877326Y-91839203D01*
X157873873Y-91882352D01*
X157836104Y-91911969D01*
X157779361Y-91925455D01*
X157718992Y-91920208D01*
X157670340Y-91893627D01*
X157657602Y-91876447D01*
X157636698Y-91830981D01*
X157642977Y-91807839D01*
X157684994Y-91799521D01*
X157746494Y-91798499D01*
X157828960Y-91805372D01*
X157870865Y-91827782D01*
X157877326Y-91839203D01*
X158006913Y-91839203D01*
X158007514Y-91822338D01*
X157967837Y-91741350D01*
X157953817Y-91726654D01*
X157898254Y-91689825D01*
X157823135Y-91673552D01*
X157763126Y-91671372D01*
X157676968Y-91665714D01*
X157636069Y-91645928D01*
X157635813Y-91607798D01*
X157654589Y-91572227D01*
X157687401Y-91550223D01*
X157752281Y-91547880D01*
X157790507Y-91552187D01*
X157889360Y-91555178D01*
X157947252Y-91536027D01*
X157976125Y-91509091D01*
X157966485Y-91483904D01*
X157944428Y-91462960D01*
X157868442Y-91424065D01*
X157768668Y-91409697D01*
X157665687Y-91419535D01*
G36*
X157243544Y-91417522D02*
G01*
X157153464Y-91417712D01*
X157075156Y-91417734D01*
X157047620Y-91417672D01*
X156979153Y-91429139D01*
X156954228Y-91461452D01*
X156975622Y-91510374D01*
X156982017Y-91517807D01*
X157040936Y-91555562D01*
X157088534Y-91553707D01*
X157146554Y-91548079D01*
X157186104Y-91569542D01*
X157210225Y-91624212D01*
X157221960Y-91718207D01*
X157224475Y-91827037D01*
X157224475Y-92052753D01*
X157377027Y-92052753D01*
X157377027Y-91417113D01*
X157243544Y-91417522D01*
G37*
X157243544Y-91417522D02*
X157153464Y-91417712D01*
X157075156Y-91417734D01*
X157047620Y-91417672D01*
X156979153Y-91429139D01*
X156954228Y-91461452D01*
X156975622Y-91510374D01*
X156982017Y-91517807D01*
X157040936Y-91555562D01*
X157088534Y-91553707D01*
X157146554Y-91548079D01*
X157186104Y-91569542D01*
X157210225Y-91624212D01*
X157221960Y-91718207D01*
X157224475Y-91827037D01*
X157224475Y-92052753D01*
X157377027Y-92052753D01*
X157377027Y-91417113D01*
X157243544Y-91417522D01*
G36*
X156633956Y-91408934D02*
G01*
X156545810Y-91449627D01*
X156471216Y-91524899D01*
X156425388Y-91618506D01*
X156421398Y-91635892D01*
X156411474Y-91711546D01*
X156421443Y-91759357D01*
X156459323Y-91785599D01*
X156533132Y-91796541D01*
X156629280Y-91798499D01*
X156823870Y-91798499D01*
X156785501Y-91855706D01*
X156728275Y-91899338D01*
X156646821Y-91911525D01*
X156562684Y-91891155D01*
X156514296Y-91891706D01*
X156473695Y-91912034D01*
X156441606Y-91940433D01*
X156444132Y-91963289D01*
X156483975Y-91998500D01*
X156487137Y-92001019D01*
X156576749Y-92043374D01*
X156684688Y-92053690D01*
X156790181Y-92032435D01*
X156859322Y-91992615D01*
X156899188Y-91951365D01*
X156922040Y-91903001D01*
X156933857Y-91830626D01*
X156938057Y-91770143D01*
X156937437Y-91654088D01*
X156936374Y-91647702D01*
X156805894Y-91647702D01*
X156801442Y-91664630D01*
X156763540Y-91670626D01*
X156693642Y-91671372D01*
X156620103Y-91667754D01*
X156572884Y-91658485D01*
X156563414Y-91650806D01*
X156576966Y-91615722D01*
X156596620Y-91584828D01*
X156648241Y-91550837D01*
X156712429Y-91555411D01*
X156771988Y-91595887D01*
X156786074Y-91614164D01*
X156805894Y-91647702D01*
X156936374Y-91647702D01*
X156922956Y-91567161D01*
X156913854Y-91544244D01*
X156856307Y-91479072D01*
X156770542Y-91429670D01*
X156678519Y-91406654D01*
X156633956Y-91408934D01*
G37*
X156633956Y-91408934D02*
X156545810Y-91449627D01*
X156471216Y-91524899D01*
X156425388Y-91618506D01*
X156421398Y-91635892D01*
X156411474Y-91711546D01*
X156421443Y-91759357D01*
X156459323Y-91785599D01*
X156533132Y-91796541D01*
X156629280Y-91798499D01*
X156823870Y-91798499D01*
X156785501Y-91855706D01*
X156728275Y-91899338D01*
X156646821Y-91911525D01*
X156562684Y-91891155D01*
X156514296Y-91891706D01*
X156473695Y-91912034D01*
X156441606Y-91940433D01*
X156444132Y-91963289D01*
X156483975Y-91998500D01*
X156487137Y-92001019D01*
X156576749Y-92043374D01*
X156684688Y-92053690D01*
X156790181Y-92032435D01*
X156859322Y-91992615D01*
X156899188Y-91951365D01*
X156922040Y-91903001D01*
X156933857Y-91830626D01*
X156938057Y-91770143D01*
X156937437Y-91654088D01*
X156936374Y-91647702D01*
X156805894Y-91647702D01*
X156801442Y-91664630D01*
X156763540Y-91670626D01*
X156693642Y-91671372D01*
X156620103Y-91667754D01*
X156572884Y-91658485D01*
X156563414Y-91650806D01*
X156576966Y-91615722D01*
X156596620Y-91584828D01*
X156648241Y-91550837D01*
X156712429Y-91555411D01*
X156771988Y-91595887D01*
X156786074Y-91614164D01*
X156805894Y-91647702D01*
X156936374Y-91647702D01*
X156922956Y-91567161D01*
X156913854Y-91544244D01*
X156856307Y-91479072D01*
X156770542Y-91429670D01*
X156678519Y-91406654D01*
X156633956Y-91408934D01*
G36*
X160170161Y-90443974D02*
G01*
X160090120Y-90499647D01*
X160041977Y-90594519D01*
X160027484Y-90674920D01*
X160014802Y-90806907D01*
X160208727Y-90806907D01*
X160316329Y-90809723D01*
X160377971Y-90819932D01*
X160398320Y-90840176D01*
X160382045Y-90873100D01*
X160362699Y-90894080D01*
X160293191Y-90930262D01*
X160207724Y-90922774D01*
X160169186Y-90906127D01*
X160118324Y-90892512D01*
X160076421Y-90918840D01*
X160049491Y-90954589D01*
X160062134Y-90985165D01*
X160074236Y-90997896D01*
X160140853Y-91039199D01*
X160229557Y-91065323D01*
X160312060Y-91068015D01*
X160313664Y-91067735D01*
X160422419Y-91025352D01*
X160500686Y-90948096D01*
X160545007Y-90844163D01*
X160551922Y-90721753D01*
X160532728Y-90646727D01*
X160402653Y-90646727D01*
X160379166Y-90670046D01*
X160307968Y-90679519D01*
X160288239Y-90679780D01*
X160207519Y-90672995D01*
X160174728Y-90652427D01*
X160173824Y-90646727D01*
X160196184Y-90592855D01*
X160251421Y-90558218D01*
X160288239Y-90552653D01*
X160353758Y-90571037D01*
X160395884Y-90616455D01*
X160402653Y-90646727D01*
X160532728Y-90646727D01*
X160517974Y-90589063D01*
X160516798Y-90586224D01*
X160465302Y-90494554D01*
X160398394Y-90444479D01*
X160302609Y-90426781D01*
X160283300Y-90426334D01*
X160170161Y-90443974D01*
G37*
X160170161Y-90443974D02*
X160090120Y-90499647D01*
X160041977Y-90594519D01*
X160027484Y-90674920D01*
X160014802Y-90806907D01*
X160208727Y-90806907D01*
X160316329Y-90809723D01*
X160377971Y-90819932D01*
X160398320Y-90840176D01*
X160382045Y-90873100D01*
X160362699Y-90894080D01*
X160293191Y-90930262D01*
X160207724Y-90922774D01*
X160169186Y-90906127D01*
X160118324Y-90892512D01*
X160076421Y-90918840D01*
X160049491Y-90954589D01*
X160062134Y-90985165D01*
X160074236Y-90997896D01*
X160140853Y-91039199D01*
X160229557Y-91065323D01*
X160312060Y-91068015D01*
X160313664Y-91067735D01*
X160422419Y-91025352D01*
X160500686Y-90948096D01*
X160545007Y-90844163D01*
X160551922Y-90721753D01*
X160532728Y-90646727D01*
X160402653Y-90646727D01*
X160379166Y-90670046D01*
X160307968Y-90679519D01*
X160288239Y-90679780D01*
X160207519Y-90672995D01*
X160174728Y-90652427D01*
X160173824Y-90646727D01*
X160196184Y-90592855D01*
X160251421Y-90558218D01*
X160288239Y-90552653D01*
X160353758Y-90571037D01*
X160395884Y-90616455D01*
X160402653Y-90646727D01*
X160532728Y-90646727D01*
X160517974Y-90589063D01*
X160516798Y-90586224D01*
X160465302Y-90494554D01*
X160398394Y-90444479D01*
X160302609Y-90426781D01*
X160283300Y-90426334D01*
X160170161Y-90443974D01*
G36*
X156394776Y-90452225D02*
G01*
X156347870Y-90480469D01*
X156278021Y-90535412D01*
X156335541Y-90578800D01*
X156380847Y-90606614D01*
X156420155Y-90604018D01*
X156462355Y-90582419D01*
X156515974Y-90557376D01*
X156557680Y-90562539D01*
X156598382Y-90586376D01*
X156642090Y-90624650D01*
X156661397Y-90675963D01*
X156665115Y-90742488D01*
X156658141Y-90823730D01*
X156632680Y-90873783D01*
X156608607Y-90894454D01*
X156533222Y-90930350D01*
X156469065Y-90920137D01*
X156438289Y-90897935D01*
X156403319Y-90876336D01*
X156367201Y-90888408D01*
X156341909Y-90907584D01*
X156304189Y-90942487D01*
X156304601Y-90967423D01*
X156332049Y-90995303D01*
X156425145Y-91048424D01*
X156536623Y-91066054D01*
X156606309Y-91056676D01*
X156697424Y-91008655D01*
X156763232Y-90927488D01*
X156801805Y-90825187D01*
X156811216Y-90713764D01*
X156789536Y-90605230D01*
X156734838Y-90511598D01*
X156699213Y-90477741D01*
X156607178Y-90434597D01*
X156498803Y-90426145D01*
X156394776Y-90452225D01*
G37*
X156394776Y-90452225D02*
X156347870Y-90480469D01*
X156278021Y-90535412D01*
X156335541Y-90578800D01*
X156380847Y-90606614D01*
X156420155Y-90604018D01*
X156462355Y-90582419D01*
X156515974Y-90557376D01*
X156557680Y-90562539D01*
X156598382Y-90586376D01*
X156642090Y-90624650D01*
X156661397Y-90675963D01*
X156665115Y-90742488D01*
X156658141Y-90823730D01*
X156632680Y-90873783D01*
X156608607Y-90894454D01*
X156533222Y-90930350D01*
X156469065Y-90920137D01*
X156438289Y-90897935D01*
X156403319Y-90876336D01*
X156367201Y-90888408D01*
X156341909Y-90907584D01*
X156304189Y-90942487D01*
X156304601Y-90967423D01*
X156332049Y-90995303D01*
X156425145Y-91048424D01*
X156536623Y-91066054D01*
X156606309Y-91056676D01*
X156697424Y-91008655D01*
X156763232Y-90927488D01*
X156801805Y-90825187D01*
X156811216Y-90713764D01*
X156789536Y-90605230D01*
X156734838Y-90511598D01*
X156699213Y-90477741D01*
X156607178Y-90434597D01*
X156498803Y-90426145D01*
X156394776Y-90452225D01*
G36*
X155939115Y-90431381D02*
G01*
X155844960Y-90480927D01*
X155824121Y-90499846D01*
X155774179Y-90561510D01*
X155753001Y-90628553D01*
X155749800Y-90690537D01*
X155749800Y-90806907D01*
X155940491Y-90806907D01*
X156047087Y-90809794D01*
X156107692Y-90820236D01*
X156126929Y-90840909D01*
X156109423Y-90874486D01*
X156091227Y-90894080D01*
X156021716Y-90930264D01*
X155936218Y-90922750D01*
X155897583Y-90906056D01*
X155850047Y-90892669D01*
X155806372Y-90917428D01*
X155795906Y-90927479D01*
X155762924Y-90964873D01*
X155768462Y-90988812D01*
X155805360Y-91015093D01*
X155922886Y-91062866D01*
X156050951Y-91061044D01*
X156072376Y-91056108D01*
X156165794Y-91007608D01*
X156232862Y-90923297D01*
X156269170Y-90813236D01*
X156270311Y-90687487D01*
X156259919Y-90636294D01*
X156125117Y-90636294D01*
X156119042Y-90663882D01*
X156068438Y-90677214D01*
X156000953Y-90679780D01*
X155925285Y-90678753D01*
X155891289Y-90671884D01*
X155889789Y-90653494D01*
X155908522Y-90622573D01*
X155966078Y-90569858D01*
X156032511Y-90559979D01*
X156089874Y-90591254D01*
X156125117Y-90636294D01*
X156259919Y-90636294D01*
X156258777Y-90630669D01*
X156209410Y-90527849D01*
X156132343Y-90458154D01*
X156038577Y-90424894D01*
X155939115Y-90431381D01*
G37*
X155939115Y-90431381D02*
X155844960Y-90480927D01*
X155824121Y-90499846D01*
X155774179Y-90561510D01*
X155753001Y-90628553D01*
X155749800Y-90690537D01*
X155749800Y-90806907D01*
X155940491Y-90806907D01*
X156047087Y-90809794D01*
X156107692Y-90820236D01*
X156126929Y-90840909D01*
X156109423Y-90874486D01*
X156091227Y-90894080D01*
X156021716Y-90930264D01*
X155936218Y-90922750D01*
X155897583Y-90906056D01*
X155850047Y-90892669D01*
X155806372Y-90917428D01*
X155795906Y-90927479D01*
X155762924Y-90964873D01*
X155768462Y-90988812D01*
X155805360Y-91015093D01*
X155922886Y-91062866D01*
X156050951Y-91061044D01*
X156072376Y-91056108D01*
X156165794Y-91007608D01*
X156232862Y-90923297D01*
X156269170Y-90813236D01*
X156270311Y-90687487D01*
X156259919Y-90636294D01*
X156125117Y-90636294D01*
X156119042Y-90663882D01*
X156068438Y-90677214D01*
X156000953Y-90679780D01*
X155925285Y-90678753D01*
X155891289Y-90671884D01*
X155889789Y-90653494D01*
X155908522Y-90622573D01*
X155966078Y-90569858D01*
X156032511Y-90559979D01*
X156089874Y-90591254D01*
X156125117Y-90636294D01*
X156259919Y-90636294D01*
X156258777Y-90630669D01*
X156209410Y-90527849D01*
X156132343Y-90458154D01*
X156038577Y-90424894D01*
X155939115Y-90431381D01*
G36*
X161383044Y-90444100D02*
G01*
X161312692Y-90495446D01*
X161250216Y-90595050D01*
X161222354Y-90713522D01*
X161229170Y-90835239D01*
X161270725Y-90944583D01*
X161310707Y-90996115D01*
X161367422Y-91039602D01*
X161435863Y-91058395D01*
X161497153Y-91061161D01*
X161578446Y-91056021D01*
X161632301Y-91034217D01*
X161681638Y-90986173D01*
X161684377Y-90982934D01*
X161721780Y-90930433D01*
X161741795Y-90874092D01*
X161749444Y-90795338D01*
X161750200Y-90739437D01*
X161750155Y-90737686D01*
X161623073Y-90737686D01*
X161607713Y-90829827D01*
X161567624Y-90895744D01*
X161511789Y-90928880D01*
X161449196Y-90922679D01*
X161408773Y-90894080D01*
X161375834Y-90833470D01*
X161367726Y-90754673D01*
X161380997Y-90672721D01*
X161412195Y-90602646D01*
X161457868Y-90559481D01*
X161487174Y-90552653D01*
X161542828Y-90575169D01*
X161591142Y-90631566D01*
X161619831Y-90705113D01*
X161623073Y-90737686D01*
X161750155Y-90737686D01*
X161747773Y-90645675D01*
X161736818Y-90584912D01*
X161711826Y-90539384D01*
X161675880Y-90499846D01*
X161584598Y-90439481D01*
X161482355Y-90420842D01*
X161383044Y-90444100D01*
G37*
X161383044Y-90444100D02*
X161312692Y-90495446D01*
X161250216Y-90595050D01*
X161222354Y-90713522D01*
X161229170Y-90835239D01*
X161270725Y-90944583D01*
X161310707Y-90996115D01*
X161367422Y-91039602D01*
X161435863Y-91058395D01*
X161497153Y-91061161D01*
X161578446Y-91056021D01*
X161632301Y-91034217D01*
X161681638Y-90986173D01*
X161684377Y-90982934D01*
X161721780Y-90930433D01*
X161741795Y-90874092D01*
X161749444Y-90795338D01*
X161750200Y-90739437D01*
X161750155Y-90737686D01*
X161623073Y-90737686D01*
X161607713Y-90829827D01*
X161567624Y-90895744D01*
X161511789Y-90928880D01*
X161449196Y-90922679D01*
X161408773Y-90894080D01*
X161375834Y-90833470D01*
X161367726Y-90754673D01*
X161380997Y-90672721D01*
X161412195Y-90602646D01*
X161457868Y-90559481D01*
X161487174Y-90552653D01*
X161542828Y-90575169D01*
X161591142Y-90631566D01*
X161619831Y-90705113D01*
X161623073Y-90737686D01*
X161750155Y-90737686D01*
X161747773Y-90645675D01*
X161736818Y-90584912D01*
X161711826Y-90539384D01*
X161675880Y-90499846D01*
X161584598Y-90439481D01*
X161482355Y-90420842D01*
X161383044Y-90444100D01*
G36*
X159808254Y-90435953D02*
G01*
X159792443Y-90456036D01*
X159784938Y-90473725D01*
X159761932Y-90456036D01*
X159702278Y-90427927D01*
X159620441Y-90425843D01*
X159536523Y-90447564D01*
X159473469Y-90487934D01*
X159444871Y-90520254D01*
X159426642Y-90555956D01*
X159416471Y-90606803D01*
X159412048Y-90684561D01*
X159411062Y-90800996D01*
X159411061Y-90805751D01*
X159411061Y-91061161D01*
X159563614Y-91061161D01*
X159563614Y-90831787D01*
X159564316Y-90722762D01*
X159568323Y-90653466D01*
X159578483Y-90612783D01*
X159597645Y-90589593D01*
X159628659Y-90572778D01*
X159630164Y-90572091D01*
X159682272Y-90555645D01*
X159719447Y-90572722D01*
X159744579Y-90600878D01*
X159770539Y-90644882D01*
X159785442Y-90705984D01*
X159791747Y-90797526D01*
X159792443Y-90860575D01*
X159793144Y-90960603D01*
X159797453Y-91020229D01*
X159808681Y-91049899D01*
X159830139Y-91060059D01*
X159856006Y-91061161D01*
X159919570Y-91061161D01*
X159919570Y-90425526D01*
X159856006Y-90425526D01*
X159808254Y-90435953D01*
G37*
X159808254Y-90435953D02*
X159792443Y-90456036D01*
X159784938Y-90473725D01*
X159761932Y-90456036D01*
X159702278Y-90427927D01*
X159620441Y-90425843D01*
X159536523Y-90447564D01*
X159473469Y-90487934D01*
X159444871Y-90520254D01*
X159426642Y-90555956D01*
X159416471Y-90606803D01*
X159412048Y-90684561D01*
X159411062Y-90800996D01*
X159411061Y-90805751D01*
X159411061Y-91061161D01*
X159563614Y-91061161D01*
X159563614Y-90831787D01*
X159564316Y-90722762D01*
X159568323Y-90653466D01*
X159578483Y-90612783D01*
X159597645Y-90589593D01*
X159628659Y-90572778D01*
X159630164Y-90572091D01*
X159682272Y-90555645D01*
X159719447Y-90572722D01*
X159744579Y-90600878D01*
X159770539Y-90644882D01*
X159785442Y-90705984D01*
X159791747Y-90797526D01*
X159792443Y-90860575D01*
X159793144Y-90960603D01*
X159797453Y-91020229D01*
X159808681Y-91049899D01*
X159830139Y-91060059D01*
X159856006Y-91061161D01*
X159919570Y-91061161D01*
X159919570Y-90425526D01*
X159856006Y-90425526D01*
X159808254Y-90435953D01*
G36*
X158676809Y-90443704D02*
G01*
X158607118Y-90464837D01*
X158583174Y-90479754D01*
X158559817Y-90512234D01*
X158573406Y-90542293D01*
X158594541Y-90562735D01*
X158643107Y-90592470D01*
X158691919Y-90581909D01*
X158695363Y-90580105D01*
X158766660Y-90556649D01*
X158835935Y-90556281D01*
X158884524Y-90577890D01*
X158893779Y-90591888D01*
X158901534Y-90624161D01*
X158888010Y-90645219D01*
X158843774Y-90660645D01*
X158759394Y-90676021D01*
X158748780Y-90677708D01*
X158642710Y-90705151D01*
X158578909Y-90751180D01*
X158550129Y-90822812D01*
X158546597Y-90873485D01*
X158568528Y-90961062D01*
X158632229Y-91022561D01*
X158734559Y-91055755D01*
X158811335Y-91061161D01*
X158918263Y-91050846D01*
X158998436Y-91022845D01*
X159004954Y-91018741D01*
X159053079Y-90985895D01*
X159078256Y-90968047D01*
X159071257Y-90945750D01*
X159043387Y-90909708D01*
X159006974Y-90877233D01*
X158970773Y-90876523D01*
X158926154Y-90896840D01*
X158832347Y-90929107D01*
X158750961Y-90927079D01*
X158698640Y-90895282D01*
X158679059Y-90862178D01*
X158690412Y-90838937D01*
X158739326Y-90820965D01*
X158830405Y-90803990D01*
X158938241Y-90777868D01*
X159003705Y-90736381D01*
X159034602Y-90672423D01*
X159039850Y-90613304D01*
X159022874Y-90521061D01*
X158970312Y-90461295D01*
X158879715Y-90432359D01*
X158768606Y-90430942D01*
X158676809Y-90443704D01*
G37*
X158676809Y-90443704D02*
X158607118Y-90464837D01*
X158583174Y-90479754D01*
X158559817Y-90512234D01*
X158573406Y-90542293D01*
X158594541Y-90562735D01*
X158643107Y-90592470D01*
X158691919Y-90581909D01*
X158695363Y-90580105D01*
X158766660Y-90556649D01*
X158835935Y-90556281D01*
X158884524Y-90577890D01*
X158893779Y-90591888D01*
X158901534Y-90624161D01*
X158888010Y-90645219D01*
X158843774Y-90660645D01*
X158759394Y-90676021D01*
X158748780Y-90677708D01*
X158642710Y-90705151D01*
X158578909Y-90751180D01*
X158550129Y-90822812D01*
X158546597Y-90873485D01*
X158568528Y-90961062D01*
X158632229Y-91022561D01*
X158734559Y-91055755D01*
X158811335Y-91061161D01*
X158918263Y-91050846D01*
X158998436Y-91022845D01*
X159004954Y-91018741D01*
X159053079Y-90985895D01*
X159078256Y-90968047D01*
X159071257Y-90945750D01*
X159043387Y-90909708D01*
X159006974Y-90877233D01*
X158970773Y-90876523D01*
X158926154Y-90896840D01*
X158832347Y-90929107D01*
X158750961Y-90927079D01*
X158698640Y-90895282D01*
X158679059Y-90862178D01*
X158690412Y-90838937D01*
X158739326Y-90820965D01*
X158830405Y-90803990D01*
X158938241Y-90777868D01*
X159003705Y-90736381D01*
X159034602Y-90672423D01*
X159039850Y-90613304D01*
X159022874Y-90521061D01*
X158970312Y-90461295D01*
X158879715Y-90432359D01*
X158768606Y-90430942D01*
X158676809Y-90443704D01*
G36*
X158084966Y-90458652D02*
G01*
X158049832Y-90483474D01*
X157991378Y-90564280D01*
X157960370Y-90671969D01*
X157957160Y-90790388D01*
X157982100Y-90903388D01*
X158035542Y-90994819D01*
X158038608Y-90998151D01*
X158117262Y-91048315D01*
X158215118Y-91065352D01*
X158313043Y-91049218D01*
X158391903Y-90999870D01*
X158392780Y-90998943D01*
X158447805Y-90908705D01*
X158474393Y-90796334D01*
X158473627Y-90737686D01*
X158343193Y-90737686D01*
X158328497Y-90828560D01*
X158290462Y-90893697D01*
X158238169Y-90927180D01*
X158180700Y-90923094D01*
X158128519Y-90877526D01*
X158094546Y-90793409D01*
X158093795Y-90700622D01*
X158125384Y-90620593D01*
X158139790Y-90603504D01*
X158185325Y-90566174D01*
X158216066Y-90552653D01*
X158265031Y-90574858D01*
X158309880Y-90629825D01*
X158338608Y-90700081D01*
X158343193Y-90737686D01*
X158473627Y-90737686D01*
X158472845Y-90677909D01*
X158443464Y-90569507D01*
X158386552Y-90487207D01*
X158383118Y-90484176D01*
X158290216Y-90435016D01*
X158184900Y-90426495D01*
X158084966Y-90458652D01*
G37*
X158084966Y-90458652D02*
X158049832Y-90483474D01*
X157991378Y-90564280D01*
X157960370Y-90671969D01*
X157957160Y-90790388D01*
X157982100Y-90903388D01*
X158035542Y-90994819D01*
X158038608Y-90998151D01*
X158117262Y-91048315D01*
X158215118Y-91065352D01*
X158313043Y-91049218D01*
X158391903Y-90999870D01*
X158392780Y-90998943D01*
X158447805Y-90908705D01*
X158474393Y-90796334D01*
X158473627Y-90737686D01*
X158343193Y-90737686D01*
X158328497Y-90828560D01*
X158290462Y-90893697D01*
X158238169Y-90927180D01*
X158180700Y-90923094D01*
X158128519Y-90877526D01*
X158094546Y-90793409D01*
X158093795Y-90700622D01*
X158125384Y-90620593D01*
X158139790Y-90603504D01*
X158185325Y-90566174D01*
X158216066Y-90552653D01*
X158265031Y-90574858D01*
X158309880Y-90629825D01*
X158338608Y-90700081D01*
X158343193Y-90737686D01*
X158473627Y-90737686D01*
X158472845Y-90677909D01*
X158443464Y-90569507D01*
X158386552Y-90487207D01*
X158383118Y-90484176D01*
X158290216Y-90435016D01*
X158184900Y-90426495D01*
X158084966Y-90458652D01*
G36*
X157707558Y-90649270D02*
G01*
X157704156Y-90776549D01*
X157692076Y-90860919D01*
X157668505Y-90909982D01*
X157630631Y-90931341D01*
X157602213Y-90934034D01*
X157544198Y-90912180D01*
X157504712Y-90845803D01*
X157483269Y-90733682D01*
X157478729Y-90623272D01*
X157478004Y-90524107D01*
X157473572Y-90465271D01*
X157462054Y-90436244D01*
X157440066Y-90426503D01*
X157415165Y-90425526D01*
X157351602Y-90425526D01*
X157351602Y-91061161D01*
X157415165Y-91061161D01*
X157462918Y-91050734D01*
X157478729Y-91030651D01*
X157486234Y-91012962D01*
X157509240Y-91030651D01*
X157568894Y-91058760D01*
X157650731Y-91060844D01*
X157734648Y-91039123D01*
X157797703Y-90998754D01*
X157826300Y-90966433D01*
X157844530Y-90930732D01*
X157854701Y-90879884D01*
X157859124Y-90802126D01*
X157860110Y-90685691D01*
X157860110Y-90425526D01*
X157707558Y-90425526D01*
X157707558Y-90649270D01*
G37*
X157707558Y-90649270D02*
X157704156Y-90776549D01*
X157692076Y-90860919D01*
X157668505Y-90909982D01*
X157630631Y-90931341D01*
X157602213Y-90934034D01*
X157544198Y-90912180D01*
X157504712Y-90845803D01*
X157483269Y-90733682D01*
X157478729Y-90623272D01*
X157478004Y-90524107D01*
X157473572Y-90465271D01*
X157462054Y-90436244D01*
X157440066Y-90426503D01*
X157415165Y-90425526D01*
X157351602Y-90425526D01*
X157351602Y-91061161D01*
X157415165Y-91061161D01*
X157462918Y-91050734D01*
X157478729Y-91030651D01*
X157486234Y-91012962D01*
X157509240Y-91030651D01*
X157568894Y-91058760D01*
X157650731Y-91060844D01*
X157734648Y-91039123D01*
X157797703Y-90998754D01*
X157826300Y-90966433D01*
X157844530Y-90930732D01*
X157854701Y-90879884D01*
X157859124Y-90802126D01*
X157860110Y-90685691D01*
X157860110Y-90425526D01*
X157707558Y-90425526D01*
X157707558Y-90649270D01*
G36*
X156924868Y-90431920D02*
G01*
X156848765Y-90439457D01*
X156806772Y-90450651D01*
X156803139Y-90453889D01*
X156804548Y-90492084D01*
X156836871Y-90533091D01*
X156883518Y-90561583D01*
X156922675Y-90564316D01*
X156980980Y-90564069D01*
X157020111Y-90577564D01*
X157045049Y-90596102D01*
X157060462Y-90626447D01*
X157068574Y-90679577D01*
X157071610Y-90766469D01*
X157071922Y-90833227D01*
X157071922Y-91061161D01*
X157224475Y-91061161D01*
X157224475Y-90430857D01*
X157021746Y-90429527D01*
X156924868Y-90431920D01*
G37*
X156924868Y-90431920D02*
X156848765Y-90439457D01*
X156806772Y-90450651D01*
X156803139Y-90453889D01*
X156804548Y-90492084D01*
X156836871Y-90533091D01*
X156883518Y-90561583D01*
X156922675Y-90564316D01*
X156980980Y-90564069D01*
X157020111Y-90577564D01*
X157045049Y-90596102D01*
X157060462Y-90626447D01*
X157068574Y-90679577D01*
X157071610Y-90766469D01*
X157071922Y-90833227D01*
X157071922Y-91061161D01*
X157224475Y-91061161D01*
X157224475Y-90430857D01*
X157021746Y-90429527D01*
X156924868Y-90431920D01*
G36*
X158396300Y-85874932D02*
G01*
X158377296Y-85969792D01*
X158355718Y-86086626D01*
X158339620Y-86180013D01*
X158321270Y-86271501D01*
X158300911Y-86343217D01*
X158282841Y-86380129D01*
X158282264Y-86380638D01*
X158246608Y-86400423D01*
X158176784Y-86432378D01*
X158086112Y-86470491D01*
X158059158Y-86481306D01*
X157864111Y-86558746D01*
X157324393Y-86194320D01*
X156861985Y-86656728D01*
X157043905Y-86920578D01*
X157225824Y-87184429D01*
X157132955Y-87400223D01*
X157091403Y-87495676D01*
X157057348Y-87571865D01*
X157035734Y-87617826D01*
X157031093Y-87626095D01*
X157003858Y-87634743D01*
X156937726Y-87649931D01*
X156843851Y-87669206D01*
X156773689Y-87682680D01*
X156660932Y-87704096D01*
X156561889Y-87723460D01*
X156490696Y-87737982D01*
X156468068Y-87743006D01*
X156444283Y-87750942D01*
X156428210Y-87766951D01*
X156418342Y-87799733D01*
X156413167Y-87857988D01*
X156411177Y-87950414D01*
X156410861Y-88072658D01*
X156412693Y-88194363D01*
X156417689Y-88296798D01*
X156425103Y-88369690D01*
X156434189Y-88402768D01*
X156434906Y-88403351D01*
X156464633Y-88411787D01*
X156531742Y-88426969D01*
X156623616Y-88446372D01*
X156727641Y-88467472D01*
X156831200Y-88487745D01*
X156921675Y-88504665D01*
X156986452Y-88515708D01*
X157010943Y-88518619D01*
X157021946Y-88540645D01*
X157047297Y-88600098D01*
X157082837Y-88687044D01*
X157111876Y-88759766D01*
X157207320Y-89000912D01*
X157037484Y-89248265D01*
X156867648Y-89495617D01*
X157090026Y-89719030D01*
X157177065Y-89804494D01*
X157252482Y-89874861D01*
X157308518Y-89923147D01*
X157337416Y-89942366D01*
X157338170Y-89942443D01*
X157368525Y-89928734D01*
X157430587Y-89891648D01*
X157514600Y-89837240D01*
X157589059Y-89786696D01*
X157814180Y-89630950D01*
X157938773Y-89689306D01*
X158010031Y-89719410D01*
X158061008Y-89734868D01*
X158076576Y-89734452D01*
X158091947Y-89705548D01*
X158122385Y-89637908D01*
X158164381Y-89540136D01*
X158214430Y-89420836D01*
X158269026Y-89288609D01*
X158324662Y-89152058D01*
X158377831Y-89019788D01*
X158425027Y-88900400D01*
X158462743Y-88802497D01*
X158487474Y-88734683D01*
X158495746Y-88706051D01*
X158483538Y-88674327D01*
X158474897Y-88671171D01*
X158445597Y-88655834D01*
X158391774Y-88616246D01*
X158344310Y-88577240D01*
X158226394Y-88445758D01*
X158150128Y-88294262D01*
X158116212Y-88131503D01*
X158125343Y-87966230D01*
X158178222Y-87807192D01*
X158271679Y-87667492D01*
X158400153Y-87550531D01*
X158542511Y-87480010D01*
X158708026Y-87451724D01*
X158750000Y-87450751D01*
X158922169Y-87472690D01*
X159070921Y-87533815D01*
X159193871Y-87627089D01*
X159288633Y-87745473D01*
X159352821Y-87881929D01*
X159384051Y-88029420D01*
X159379936Y-88180907D01*
X159338092Y-88329353D01*
X159256132Y-88467720D01*
X159134950Y-88586487D01*
X159068096Y-88641487D01*
X159021304Y-88687698D01*
X159005703Y-88712408D01*
X159014616Y-88742529D01*
X159039850Y-88810913D01*
X159077901Y-88908992D01*
X159125270Y-89028199D01*
X159178453Y-89159967D01*
X159233951Y-89295729D01*
X159288261Y-89426919D01*
X159337883Y-89544970D01*
X159379314Y-89641314D01*
X159409053Y-89707384D01*
X159423424Y-89734452D01*
X159451756Y-89731929D01*
X159510625Y-89711401D01*
X159561228Y-89689306D01*
X159685820Y-89630950D01*
X159910942Y-89786696D01*
X160005299Y-89850407D01*
X160085314Y-89901518D01*
X160141228Y-89933974D01*
X160161830Y-89942443D01*
X160188696Y-89925354D01*
X160243205Y-89878745D01*
X160317598Y-89809601D01*
X160404117Y-89724906D01*
X160409975Y-89719030D01*
X160632353Y-89495617D01*
X160462517Y-89248265D01*
X160292681Y-89000912D01*
X160387170Y-88762179D01*
X160435794Y-88645567D01*
X160474195Y-88569895D01*
X160506978Y-88527463D01*
X160537501Y-88510838D01*
X160586024Y-88500932D01*
X160670505Y-88484677D01*
X160776860Y-88464759D01*
X160841242Y-88452911D01*
X161089139Y-88407591D01*
X161089139Y-88084444D01*
X161087532Y-87937932D01*
X161082379Y-87836924D01*
X161073180Y-87776165D01*
X161059438Y-87750402D01*
X161057358Y-87749374D01*
X161020074Y-87740189D01*
X160944889Y-87724934D01*
X160844041Y-87706014D01*
X160767162Y-87692304D01*
X160656885Y-87671991D01*
X160565020Y-87653118D01*
X160503372Y-87638222D01*
X160484625Y-87631587D01*
X160464478Y-87602636D01*
X160430678Y-87538095D01*
X160389007Y-87449366D01*
X160367340Y-87400223D01*
X160274176Y-87184429D01*
X160456096Y-86920578D01*
X160638016Y-86656728D01*
X160175608Y-86194320D01*
X159905749Y-86376533D01*
X159635889Y-86558746D01*
X159440843Y-86481306D01*
X159346830Y-86442601D01*
X159270047Y-86408453D01*
X159223781Y-86384848D01*
X159218142Y-86380974D01*
X159200503Y-86346070D01*
X159179787Y-86275416D01*
X159160190Y-86183587D01*
X159158390Y-86173436D01*
X159138191Y-86060563D01*
X159117159Y-85948248D01*
X159101305Y-85868018D01*
X159076317Y-85747248D01*
X158423683Y-85747248D01*
X158396300Y-85874932D01*
G37*
X158396300Y-85874932D02*
X158377296Y-85969792D01*
X158355718Y-86086626D01*
X158339620Y-86180013D01*
X158321270Y-86271501D01*
X158300911Y-86343217D01*
X158282841Y-86380129D01*
X158282264Y-86380638D01*
X158246608Y-86400423D01*
X158176784Y-86432378D01*
X158086112Y-86470491D01*
X158059158Y-86481306D01*
X157864111Y-86558746D01*
X157324393Y-86194320D01*
X156861985Y-86656728D01*
X157043905Y-86920578D01*
X157225824Y-87184429D01*
X157132955Y-87400223D01*
X157091403Y-87495676D01*
X157057348Y-87571865D01*
X157035734Y-87617826D01*
X157031093Y-87626095D01*
X157003858Y-87634743D01*
X156937726Y-87649931D01*
X156843851Y-87669206D01*
X156773689Y-87682680D01*
X156660932Y-87704096D01*
X156561889Y-87723460D01*
X156490696Y-87737982D01*
X156468068Y-87743006D01*
X156444283Y-87750942D01*
X156428210Y-87766951D01*
X156418342Y-87799733D01*
X156413167Y-87857988D01*
X156411177Y-87950414D01*
X156410861Y-88072658D01*
X156412693Y-88194363D01*
X156417689Y-88296798D01*
X156425103Y-88369690D01*
X156434189Y-88402768D01*
X156434906Y-88403351D01*
X156464633Y-88411787D01*
X156531742Y-88426969D01*
X156623616Y-88446372D01*
X156727641Y-88467472D01*
X156831200Y-88487745D01*
X156921675Y-88504665D01*
X156986452Y-88515708D01*
X157010943Y-88518619D01*
X157021946Y-88540645D01*
X157047297Y-88600098D01*
X157082837Y-88687044D01*
X157111876Y-88759766D01*
X157207320Y-89000912D01*
X157037484Y-89248265D01*
X156867648Y-89495617D01*
X157090026Y-89719030D01*
X157177065Y-89804494D01*
X157252482Y-89874861D01*
X157308518Y-89923147D01*
X157337416Y-89942366D01*
X157338170Y-89942443D01*
X157368525Y-89928734D01*
X157430587Y-89891648D01*
X157514600Y-89837240D01*
X157589059Y-89786696D01*
X157814180Y-89630950D01*
X157938773Y-89689306D01*
X158010031Y-89719410D01*
X158061008Y-89734868D01*
X158076576Y-89734452D01*
X158091947Y-89705548D01*
X158122385Y-89637908D01*
X158164381Y-89540136D01*
X158214430Y-89420836D01*
X158269026Y-89288609D01*
X158324662Y-89152058D01*
X158377831Y-89019788D01*
X158425027Y-88900400D01*
X158462743Y-88802497D01*
X158487474Y-88734683D01*
X158495746Y-88706051D01*
X158483538Y-88674327D01*
X158474897Y-88671171D01*
X158445597Y-88655834D01*
X158391774Y-88616246D01*
X158344310Y-88577240D01*
X158226394Y-88445758D01*
X158150128Y-88294262D01*
X158116212Y-88131503D01*
X158125343Y-87966230D01*
X158178222Y-87807192D01*
X158271679Y-87667492D01*
X158400153Y-87550531D01*
X158542511Y-87480010D01*
X158708026Y-87451724D01*
X158750000Y-87450751D01*
X158922169Y-87472690D01*
X159070921Y-87533815D01*
X159193871Y-87627089D01*
X159288633Y-87745473D01*
X159352821Y-87881929D01*
X159384051Y-88029420D01*
X159379936Y-88180907D01*
X159338092Y-88329353D01*
X159256132Y-88467720D01*
X159134950Y-88586487D01*
X159068096Y-88641487D01*
X159021304Y-88687698D01*
X159005703Y-88712408D01*
X159014616Y-88742529D01*
X159039850Y-88810913D01*
X159077901Y-88908992D01*
X159125270Y-89028199D01*
X159178453Y-89159967D01*
X159233951Y-89295729D01*
X159288261Y-89426919D01*
X159337883Y-89544970D01*
X159379314Y-89641314D01*
X159409053Y-89707384D01*
X159423424Y-89734452D01*
X159451756Y-89731929D01*
X159510625Y-89711401D01*
X159561228Y-89689306D01*
X159685820Y-89630950D01*
X159910942Y-89786696D01*
X160005299Y-89850407D01*
X160085314Y-89901518D01*
X160141228Y-89933974D01*
X160161830Y-89942443D01*
X160188696Y-89925354D01*
X160243205Y-89878745D01*
X160317598Y-89809601D01*
X160404117Y-89724906D01*
X160409975Y-89719030D01*
X160632353Y-89495617D01*
X160462517Y-89248265D01*
X160292681Y-89000912D01*
X160387170Y-88762179D01*
X160435794Y-88645567D01*
X160474195Y-88569895D01*
X160506978Y-88527463D01*
X160537501Y-88510838D01*
X160586024Y-88500932D01*
X160670505Y-88484677D01*
X160776860Y-88464759D01*
X160841242Y-88452911D01*
X161089139Y-88407591D01*
X161089139Y-88084444D01*
X161087532Y-87937932D01*
X161082379Y-87836924D01*
X161073180Y-87776165D01*
X161059438Y-87750402D01*
X161057358Y-87749374D01*
X161020074Y-87740189D01*
X160944889Y-87724934D01*
X160844041Y-87706014D01*
X160767162Y-87692304D01*
X160656885Y-87671991D01*
X160565020Y-87653118D01*
X160503372Y-87638222D01*
X160484625Y-87631587D01*
X160464478Y-87602636D01*
X160430678Y-87538095D01*
X160389007Y-87449366D01*
X160367340Y-87400223D01*
X160274176Y-87184429D01*
X160456096Y-86920578D01*
X160638016Y-86656728D01*
X160175608Y-86194320D01*
X159905749Y-86376533D01*
X159635889Y-86558746D01*
X159440843Y-86481306D01*
X159346830Y-86442601D01*
X159270047Y-86408453D01*
X159223781Y-86384848D01*
X159218142Y-86380974D01*
X159200503Y-86346070D01*
X159179787Y-86275416D01*
X159160190Y-86183587D01*
X159158390Y-86173436D01*
X159138191Y-86060563D01*
X159117159Y-85948248D01*
X159101305Y-85868018D01*
X159076317Y-85747248D01*
X158423683Y-85747248D01*
X158396300Y-85874932D01*
M02*
