M48
; DRILL file {KiCad (5.1.6)-1} date 06/13/20 18:46:23
; FORMAT={-:-/ absolute / inch / decimal}
; #@! TF.CreationDate,2020-06-13T18:46:23+01:00
; #@! TF.GenerationSoftware,Kicad,Pcbnew,(5.1.6)-1
; #@! TF.FileFunction,Plated,1,2,PTH
FMAT,2
INCH
T1C0.0315
T2C0.0354
T3C0.0394
%
G90
G05
T1
X5.95Y-3.25
X5.95Y-3.75
X5.75Y-3.25
X5.75Y-3.75
X5.7Y-3.95
X5.7Y-4.25
X5.8Y-3.95
X5.8Y-4.25
X5.9Y-3.95
X5.9Y-4.25
X6.0Y-3.95
X6.0Y-4.25
X6.1Y-3.95
X6.1Y-4.25
X6.2Y-3.95
X6.2Y-4.25
X6.3Y-3.95
X6.3Y-4.25
X6.4Y-3.95
X6.4Y-4.25
X6.35Y-3.25
X6.35Y-3.75
X6.15Y-3.25
X6.15Y-3.75
T2
X6.6Y-3.675
X6.6Y-3.775
X6.6Y-3.875
X6.7Y-3.625
X6.7Y-3.725
X6.7Y-3.825
T3
X5.5Y-3.55
X5.5Y-3.65
X5.5Y-3.75
X5.5Y-3.85
X5.5Y-3.95
T0
M30
